<?xml version="1.0" encoding="utf-8"?>
<!-- Generator: Adobe Illustrator 16.0.2, SVG Export Plug-In . SVG Version: 6.00 Build 0)  -->
<!DOCTYPE svg PUBLIC "-//W3C//DTD SVG 1.1//EN" "http://www.w3.org/Graphics/SVG/1.1/DTD/svg11.dtd">
<svg version="1.1" id="Layer_1" xmlns="http://www.w3.org/2000/svg" xmlns:xlink="http://www.w3.org/1999/xlink" x="0px" y="0px"
	 width="67.15px" height="46.98px" viewBox="0 0 67.15 46.98" enable-background="new 0 0 67.15 46.98" xml:space="preserve">
<g>
	<path d="M60.86,0H6.29C2.83,0,0,2.83,0,7v34.4c0,2.761,2.83,5.58,6.29,5.58h54.57c3.46,0,6.29-2.83,6.29-5.58V6.99
		C67.12,2.82,64.3,0,60.86,0z M4.38,6.28C4.391,5.235,5.245,4.394,6.29,4.4h54.57c1.05-0.006,1.903,0.84,1.909,1.89v0.02v7.97H4.38
		V6.28z M62.86,40.7c0.001,1.05-0.849,1.901-1.897,1.902c-0.035,0-0.069-0.001-0.103-0.003H6.36c-1.049,0.006-1.904-0.84-1.91-1.889
		V40.69V23.75h58.41V40.7z"/>
	<path d="M39.351,36.4h18.148c0.731,0.09,1.397-0.423,1.5-1.149v-2.901c-0.103-0.727-0.769-1.238-1.5-1.148H39.351
		c-0.728-0.083-1.388,0.427-1.49,1.148v2.87C37.986,35.934,38.625,36.441,39.351,36.4z"/>
</g>
</svg>
