<?xml version="1.0" encoding="utf-8"?>
<!-- Generator: Adobe Illustrator 16.0.2, SVG Export Plug-In . SVG Version: 6.00 Build 0)  -->
<!DOCTYPE svg PUBLIC "-//W3C//DTD SVG 1.1//EN" "http://www.w3.org/Graphics/SVG/1.1/DTD/svg11.dtd">
<svg version="1.1" id="Layer_1" xmlns="http://www.w3.org/2000/svg" xmlns:xlink="http://www.w3.org/1999/xlink" x="0px" y="0px"
	 width="75.383px" height="68.962px" viewBox="0 0 75.383 68.962" enable-background="new 0 0 75.383 68.962" xml:space="preserve">
<path d="M71.861,29.632c-2.122-2.594-5.252-4.159-8.601-4.3h-0.31v0.079l-0.09-0.004c0.001-0.229,0.004-0.458,0-0.689
	C62.572,10.803,50.978-0.283,37.103,0.005c-13.781,0.286-24.78,11.625-24.709,25.362l-0.333,0.015h0.31v0.03h-0.24
	c-6.82,0.22-12.22,6.5-12.13,14.22c0.09,7.72,5.61,14.1,12.47,14.1h0.02h0.05h3.08c1.445,0.053,2.886-0.195,4.23-0.729V26.082
	c-1.093-0.478-2.258-0.765-3.447-0.86c0.01-11.501,9.227-20.978,20.78-21.217c11.745-0.218,21.435,9.086,21.677,20.79
	c0.003,0.141,0,0.282,0,0.423c-1.206,0.092-2.391,0.38-3.5,0.865v26.999c0.838,0.317,1.71,0.515,2.596,0.617
	c-3.104,5.055-9.307,7.583-12.997,8.688c-1.133-0.67-2.675-1.084-4.379-1.084c-3.474,0-6.29,1.716-6.29,3.83
	c0,2.115,2.816,3.83,6.29,3.83c2.949,0,5.416-1.237,6.098-2.904c4.795-1.506,12.534-4.988,15.747-12.285h0.315v-0.76
	c0.034-0.097,0.062-0.194,0.08-0.292v0.841v0.111h0.069c3.44-0.033,6.695-1.571,8.9-4.21C76.553,43.719,76.582,35.407,71.861,29.632
	z M4.001,39.632c0-5.511,3.563-9.95,8.08-10.213l0.3,20.312C7.761,49.667,4.001,45.164,4.001,39.632z M12.471,49.731h0.02v0.003
	L12.471,49.731z M62.741,51.686v-1.913h0.08v2.2C62.803,51.874,62.774,51.779,62.741,51.686z M68.752,46.842
	c-1.441,1.74-3.563,2.771-5.821,2.831h-0.077l0.298-20.251h-0.29v-3.663v-0.337h0.09v3.91h0.29c2.188,0.137,4.222,1.185,5.6,2.89
	C72.269,36.505,72.231,42.602,68.752,46.842z"/>
</svg>
