<?xml version="1.0" encoding="utf-8"?>
<!-- Generator: Adobe Illustrator 21.0.2, SVG Export Plug-In . SVG Version: 6.00 Build 0)  -->
<svg version="1.1" id="Layer_1" xmlns="http://www.w3.org/2000/svg" xmlns:xlink="http://www.w3.org/1999/xlink" x="0px" y="0px"
	 viewBox="0 0 136.2 80.8" style="enable-background:new 0 0 136.2 80.8;" xml:space="preserve">
<style type="text/css">
	.st0{fill:none;}
	.st1{fill:#FFFFFF;}
</style>
<g>
	<circle class="st0" cx="49.1" cy="69.2" r="4.9"/>
	<path class="st0" d="M49.1,60.4c-4.8,0-8.8,3.9-8.8,8.8c0,4.8,3.9,8.8,8.8,8.8c4.8,0,8.8-3.9,8.8-8.8
		C57.8,64.4,53.9,60.4,49.1,60.4z M49.1,75.5c-3.5,0-6.3-2.8-6.3-6.3s2.8-6.3,6.3-6.3s6.3,2.8,6.3,6.3S52.5,75.5,49.1,75.5z"/>
	<circle class="st0" cx="105.3" cy="69.2" r="4.9"/>
	<path class="st0" d="M91.6,8.6V2.8H26.9v13.8H32V18h-5.1v8.2H32v1.4h-5.1v8.2H32v1.4h-5.1v13.9h64.8V8.6L91.6,8.6z M61.3,39.4
		c-7.7,0-13.9-6.3-13.9-13.9s6.3-13.9,13.9-13.9s13.9,6.3,13.9,13.9S69,39.4,61.3,39.4z"/>
	<path class="st0" d="M100.4,37.1h32.8l-10.2-21h-22.6V37.1z M109.8,35l-1-1l11.1-11.1l1,1L109.8,35z M119.9,18.2l1,1l-11.1,11.1
		l-1-1L119.9,18.2z"/>
	<path class="st0" d="M99,38.5V14.7h23.3l-1.6-3.3H94.5V54l-70.8,0v10.5h14.8c1.8-4.1,5.9-7,10.6-7c4.8,0,8.9,2.9,10.6,7h34.9
		c1.8-4.1,5.9-7,10.6-7s8.9,2.9,10.6,7h17.5V38.5H99z"/>
	<path class="st0" d="M105.3,60.4c-4.8,0-8.8,3.9-8.8,8.8c0,4.8,3.9,8.8,8.8,8.8c4.8,0,8.8-3.9,8.8-8.8
		C114.1,64.4,110.1,60.4,105.3,60.4z M105.3,75.5c-3.5,0-6.3-2.8-6.3-6.3s2.8-6.3,6.3-6.3s6.3,2.8,6.3,6.3S108.8,75.5,105.3,75.5z"
		/>
	<rect x="107" y="23.6" transform="matrix(0.7071 -0.7071 0.7071 0.7071 16.4548 88.2992)" width="15.7" height="1.4"/>
	<rect x="107" y="28.2" transform="matrix(0.7071 -0.7071 0.7071 0.7071 13.1887 89.6905)" width="15.7" height="1.4"/>
	<path d="M136.2,37L122.5,8.6H94.5V0H24v16.6h-3.9V18H24v8.2H10v1.4h14v8.2H0v1.4h24v13.9l-3.3,0v16.2h16.8
		c-0.1,0.6-0.2,1.2-0.2,1.8c0,6.4,5.2,11.6,11.6,11.6c6.4,0,11.6-5.2,11.6-11.6c0-0.6-0.1-1.2-0.2-1.8h33.3
		c-0.1,0.6-0.2,1.2-0.2,1.8c0,6.4,5.2,11.6,11.6,11.6s11.6-5.2,11.6-11.6c0-0.6-0.1-1.2-0.2-1.8h19.5V37z M133.2,37.1h-32.8v-21H123
		L133.2,37.1z M26.9,51.2V37.3H32v-1.4h-5.1v-8.2H32v-1.4h-5.1V18H32v-1.4h-5.1V2.8h64.8v5.8h0l0,42.6H26.9z M49.1,78
		c-4.8,0-8.8-3.9-8.8-8.8c0-4.8,3.9-8.8,8.8-8.8c4.8,0,8.8,3.9,8.8,8.8C57.8,74.1,53.9,78,49.1,78z M105.3,78
		c-4.8,0-8.8-3.9-8.8-8.8c0-4.8,3.9-8.8,8.8-8.8c4.8,0,8.8,3.9,8.8,8.8C114.1,74.1,110.1,78,105.3,78z M115.9,64.6
		c-1.8-4.1-5.9-7-10.6-7s-8.9,2.9-10.6,7H59.7c-1.8-4.1-5.9-7-10.6-7c-4.8,0-8.9,2.9-10.6,7H23.6V54l70.8,0V11.5h26.3l1.6,3.3H99
		v23.8h34.4v26.1H115.9z"/>
	<path d="M49.1,62.9c-3.5,0-6.3,2.8-6.3,6.3s2.8,6.3,6.3,6.3s6.3-2.8,6.3-6.3S52.5,62.9,49.1,62.9z M49.1,74.1
		c-2.7,0-4.9-2.2-4.9-4.9s2.2-4.9,4.9-4.9c2.7,0,4.9,2.2,4.9,4.9S51.8,74.1,49.1,74.1z"/>
	<path d="M105.3,62.9c-3.5,0-6.3,2.8-6.3,6.3s2.8,6.3,6.3,6.3s6.3-2.8,6.3-6.3S108.8,62.9,105.3,62.9z M105.3,74.1
		c-2.7,0-4.9-2.2-4.9-4.9s2.2-4.9,4.9-4.9s4.9,2.2,4.9,4.9S108,74.1,105.3,74.1z"/>
	<path class="st1" d="M72.4,25.5c0-6.1-5-11.1-11.1-11.1s-11.1,5-11.1,11.1s5,11.1,11.1,11.1S72.4,31.6,72.4,25.5z M59.4,31.3
		l-4.8-4.8l2-2l2.8,2.8l6.6-6.6l2,2L59.4,31.3z"/>
	<path d="M61.3,11.5c-7.7,0-13.9,6.3-13.9,13.9s6.3,13.9,13.9,13.9s13.9-6.3,13.9-13.9S69,11.5,61.3,11.5z M50.2,25.5
		c0-6.1,5-11.1,11.1-11.1s11.1,5,11.1,11.1s-5,11.1-11.1,11.1S50.2,31.6,50.2,25.5z"/>
	<polygon points="59.4,27.3 56.6,24.5 54.6,26.5 59.4,31.3 68,22.6 66,20.6 	"/>
</g>
</svg>
