<?xml version="1.0" encoding="utf-8"?>
<!-- Generator: Adobe Illustrator 21.0.2, SVG Export Plug-In . SVG Version: 6.00 Build 0)  -->
<svg version="1.1" id="Layer_1" xmlns="http://www.w3.org/2000/svg" xmlns:xlink="http://www.w3.org/1999/xlink" x="0px" y="0px"
	 viewBox="0 0 70.1 71.7" style="enable-background:new 0 0 70.1 71.7;" xml:space="preserve">
<style type="text/css">
	.st0{fill:none;}
</style>
<g>
	<polygon class="st0" points="6.4,20.2 3,68.9 13.5,68.9 9.1,20.2 	"/>
	<path class="st0" d="M25.3,15.7v1.7h16.9v-1.7c0-5.5-3.5-10.3-8.5-12C28.8,5.4,25.3,10.1,25.3,15.7z"/>
	<path class="st0" d="M22.5,15.7c0-5.3,2.6-10,6.7-12.8C22.2,3,16.6,8.7,16.6,15.7v1.7h5.9V15.7z"/>
	<path class="st0" d="M45.1,15.7v1.7h5.9v-1.7c0-7-5.6-12.7-12.6-12.8C42.4,5.7,45.1,10.4,45.1,15.7z"/>
	<circle class="st0" cx="23.9" cy="27.2" r="1.1"/>
	<circle class="st0" cx="52.4" cy="27.2" r="1.1"/>
	<path class="st0" d="M62.4,20.2h-8.7v4.9c0.7,0.5,1.1,1.2,1.1,2.1c0,1.4-1.2,2.6-2.6,2.6s-2.6-1.2-2.6-2.6c0-0.9,0.5-1.7,1.1-2.1
		v-4.9H25.3v4.9c0.7,0.5,1.1,1.2,1.1,2.1c0,1.4-1.2,2.6-2.6,2.6c-1.4,0-2.6-1.2-2.6-2.6c0-0.9,0.5-1.7,1.1-2.1v-4.9H12l4.4,48.7H67
		L62.4,20.2z"/>
	<path d="M65,17.4H53.8v-1.7C53.8,7,46.8,0,38.1,0c-1.5,0-3,0.2-4.4,0.6C32.4,0.2,30.9,0,29.4,0c-8.6,0-15.7,7-15.7,15.7v1.7h-2
		h-1.3H3.7L0,71.7h14.3h2.3h53.4L65,17.4z M50.9,15.7v1.7h-5.9v-1.7c0-5.3-2.6-10-6.7-12.8C45.3,3,50.9,8.7,50.9,15.7z M33.8,3.6
		c4.9,1.8,8.5,6.5,8.5,12v1.7H25.3v-1.7C25.3,10.1,28.8,5.4,33.8,3.6z M16.6,15.7c0-7,5.6-12.7,12.6-12.8c-4,2.8-6.7,7.5-6.7,12.8
		v1.7h-5.9V15.7z M3,68.9l3.3-48.7h2.8l4.4,48.7H3z M16.4,68.9L12,20.2h10.5v4.9c-0.7,0.5-1.1,1.2-1.1,2.1c0,1.4,1.2,2.6,2.6,2.6
		c1.4,0,2.6-1.2,2.6-2.6c0-0.9-0.5-1.7-1.1-2.1v-4.9h25.6v4.9c-0.7,0.5-1.1,1.2-1.1,2.1c0,1.4,1.2,2.6,2.6,2.6s2.6-1.2,2.6-2.6
		c0-0.9-0.5-1.7-1.1-2.1v-4.9h8.7L67,68.9H16.4z M25,27.2c0,0.6-0.5,1.1-1.1,1.1s-1.1-0.5-1.1-1.1s0.5-1.1,1.1-1.1S25,26.6,25,27.2z
		 M53.5,27.2c0,0.6-0.5,1.1-1.1,1.1s-1.1-0.5-1.1-1.1s0.5-1.1,1.1-1.1S53.5,26.6,53.5,27.2z"/>
</g>
</svg>
