<svg xmlns="http://www.w3.org/2000/svg" viewBox="0 0 132.8 24.3">
  <style>
    .st0{fill:#231F20;}
  </style>
  <path d="M75.3 0l-6.9 24.3H70L76.9 0zM8.6 17.1c.2-2.3-1-4.1-2.6-6-1.5-1.8-2.2-2.7-2.1-4.4.1-1 .7-1.5 1.6-1.5.9 0 1.3.7 1.2 1.7L6.6 8c0 .3.2.5.5.5h1.7c.2 0 .5-.2.5-.4l.1-1.2c.2-2.5-1.2-4.2-3.7-4.2-2.8 0-4.4 2-4.6 4.5-.2 2.3 1.4 4.5 2.7 6 1.4 1.6 2.1 2.8 1.9 4.4-.1 1-.6 1.6-1.7 1.6-1 0-1.5-.7-1.4-1.8l.1-1c0-.3-.2-.5-.5-.5H.6c-.2 0-.5.2-.5.4L0 17.4c-.2 2.6 1.3 4.2 3.9 4.2 2.4 0 4.4-1.6 4.7-4.5M18.9 5.2l.1-1.7c0-.3-.2-.5-.5-.5H11c-.2 0-.5.2-.5.4l-.1 1.7c0 .3.2.5.5.5h1.8c.3 0 .5.2.5.5l-1.3 14.6c0 .3.2.5.5.5h1.9c.2 0 .5-.2.5-.4l1.3-14.7c0-.2.2-.4.5-.4h1.9c.2 0 .4-.2.4-.5m18.6 15.6L39 3.5c0-.2-.2-.5-.5-.5h-1.6c-.2 0-.5.2-.5.4l-.8 9c0 .4-.5.4-.6 0l-.3-1.1-2-8c0-.1-.2-.3-.4-.3h-1.8c-.2 0-.5.2-.5.5l-1.5 17.3c0 .3.2.5.5.5h1.7c.2 0 .5-.2.5-.4l.8-9.2c0-.4.4-.4.5 0l.4 1.3 2.2 7.9c.1.2.2.3.5.3H37c.2.1.4-.1.5-.4m49.3-3.7c.2-2.3-1-4.1-2.6-6-1.5-1.8-2.3-2.7-2.1-4.5.1-.9.7-1.5 1.6-1.5.9 0 1.3.7 1.2 1.7L84.8 8c0 .3.2.5.5.5H87c.2 0 .5-.2.5-.4l.1-1.2c.2-2.5-1.2-4.2-3.7-4.2-2.8 0-4.4 2-4.6 4.5-.2 2.3 1.4 4.5 2.7 6 1.4 1.6 2.1 2.8 1.9 4.4-.1 1-.6 1.6-1.7 1.6-1 0-1.5-.7-1.4-1.8l.1-1c0-.3-.2-.5-.5-.5h-1.7c-.2 0-.5.2-.5.4l-.1 1.2c-.2 2.6 1.3 4.2 3.9 4.2 2.5-.1 4.6-1.7 4.8-4.6M97.3 5.2l.1-1.7c.1-.2-.2-.5-.4-.5h-7.5c-.2 0-.5.2-.5.4l-.1 1.7c0 .3.2.5.5.5h1.8c.3 0 .5.2.5.5l-1.3 14.6c0 .3.2.5.5.5h1.9c.2 0 .5-.2.5-.4l1.3-14.7c0-.2.2-.4.5-.4H97c.1 0 .3-.2.3-.5M47 20.8l.1-1.7c0-.3-.2-.5-.5-.5h-3.2c-.3 0-.5-.2-.5-.5l1.3-14.6c0-.3-.2-.5-.5-.5h-1.9c-.2 0-.5.2-.5.4l-1.5 17.3c0 .3.2.5.5.5h6.1c.3.1.5-.1.6-.4M67.9 3h-1.8c-.2 0-.4.1-.5.3l-2.1 6.2c-.1.3-.5.3-.5 0l-1-6.2c0-.2-.2-.4-.5-.4h-2c-.3 0-.5.3-.5.6l2.2 10.3v.1l-.6 6.8c0 .3.2.5.5.5H63c.2 0 .5-.2.5-.4l.6-6.8v-.1l4.1-10.2c.3-.3 0-.7-.3-.7M56.1 20.8l.1-1.7c0-.3-.2-.5-.5-.5h-3.3c-.3 0-.5-.2-.5-.5l.4-4.6c0-.2.2-.4.5-.4H55c.2 0 .5-.2.5-.4l.1-1.5c0-.3-.2-.5-.5-.5h-2c-.3 0-.5-.2-.5-.5L53 6c0-.2.2-.4.5-.4H57c.2 0 .5-.2.5-.4l.1-1.6c0-.3-.2-.5-.5-.5h-6.3c-.2 0-.5.2-.5.4l-1.5 17.3c0 .3.2.5.5.5h6.3c.3 0 .5-.2.5-.5m66.3 0l.1-1.7c0-.3-.2-.5-.5-.5h-3c-.3 0-.5-.2-.5-.5l1.3-14.6c0-.3-.2-.5-.5-.5h-1.9c-.2 0-.5.2-.6.4l-1.5 17.3c.1.3.3.5.6.5h6.1c.2.1.4-.1.4-.4m-17.7 0l.1-1.7c0-.3-.2-.5-.5-.5H101c-.3 0-.5-.2-.5-.5l.4-4.6c0-.2.2-.4.5-.4h2.2c.2 0 .5-.2.5-.4l.1-1.5c0-.3-.2-.5-.5-.5h-2c-.3 0-.5-.2-.5-.5l.4-4.1c0-.2.2-.4.5-.4h3.5c.2 0 .5-.2.5-.4l.1-1.6c0-.3-.2-.5-.5-.5h-6.3c-.2-.2-.4 0-.4.3l-1.5 17.3c0 .3.2.5.5.5h6.3c.2 0 .4-.2.4-.5m9 0l.1-1.7c0-.3-.2-.5-.5-.5h-3.2c-.3 0-.5-.2-.5-.5L111 3.5c0-.3-.2-.5-.5-.5h-1.9c-.2 0-.5.2-.5.4l-1.5 17.3c0 .3.2.5.5.5h6.1c.3.1.5-.1.5-.4M25.4 3.5c0-.2-.2-.4-.5-.4h-2.4c-.2 0-.4.1-.5.4l-4.4 17.3c-.1.3.2.6.5.6h1.7c.2 0 .4-.2.5-.4l.6-2.4c.1-.2.2-.4.5-.4h1.9c.3 0 .5.2.5.5l.1 2.3c0 .3.2.5.5.5h2c.3 0 .5-.2.5-.5L25.4 3.5zm-2.2 12.2h-1.3c-.3 0-.3-.2-.3-.4l1.3-5.5c.1-.3.5-.3.5 0l.2 5.5c0 .3-.2.4-.4.4zM131.4 3.5c0-.2-.2-.4-.5-.4h-2.4c-.2 0-.4.1-.5.4l-4.4 17.3c-.1.3.2.6.5.6h1.7c.2 0 .4-.2.5-.4l.6-2.4c.1-.2.2-.4.5-.4h1.9c.3 0 .5.2.5.5l.1 2.3c0 .3.2.5.5.5h2c.3 0 .5-.2.5-.5l-1.5-17.5zm-2.2 12.2h-1.3c-.3 0-.3-.2-.3-.4l1.3-5.5c.1-.3.5-.3.5 0l.2 5.5c0 .3-.2.4-.4.4z" class="st0"/>
</svg>