<?xml version="1.0" encoding="utf-8"?>
<!-- Generator: Adobe Illustrator 19.0.0, SVG Export Plug-In . SVG Version: 6.00 Build 0)  -->
<svg version="1.1" id="Isolation_Mode" xmlns="http://www.w3.org/2000/svg" xmlns:xlink="http://www.w3.org/1999/xlink" x="0px"
	 y="0px" viewBox="0 0 73 45" style="enable-background:new 0 0 73 45;" xml:space="preserve">
<style type="text/css">
	.st0{fill-rule:evenodd;clip-rule:evenodd;fill:#848484;}
	.st1{fill-rule:evenodd;clip-rule:evenodd;fill:#303030;}
	.st2{fill-rule:evenodd;clip-rule:evenodd;fill:#FFFFFF;}
	.st3{fill:none;stroke:#FFFFFF;stroke-width:0.216;stroke-miterlimit:2.6131;}
</style>
<g>
	<polygon class="st0" points="49.1,42.6 50.1,42.6 51.1,42.5 52.1,42.4 53.1,42.2 54,42 55,41.7 55.9,41.4 56.8,41.1 57.7,40.7 
		58.5,40.2 59.4,39.8 60.2,39.3 60.9,38.7 61.7,38.1 62.4,37.5 63.1,36.8 63.7,36.1 64.4,35.4 64.9,34.7 65.5,33.9 66,33.1 
		66.5,32.3 66.9,31.4 67.3,30.5 67.7,29.6 68,28.7 68.3,27.8 68.5,26.8 68.7,25.9 68.8,24.9 68.9,23.9 68.9,22.8 68.9,21.8 
		68.8,20.8 68.7,19.8 68.5,18.9 68.3,17.9 68,17 67.7,16.1 67.3,15.2 66.9,14.3 66.5,13.5 66,12.6 65.5,11.8 64.9,11.1 64.4,10.3 
		63.7,9.6 63.1,8.9 62.4,8.3 61.7,7.6 60.9,7.1 60.2,6.5 59.4,6 58.5,5.5 57.7,5.1 56.8,4.7 55.9,4.3 55,4 54,3.7 53.1,3.5 
		52.1,3.4 51.1,3.2 50.1,3.2 49.1,3.1 48.1,3.2 47.1,3.2 46.1,3.4 45.1,3.5 44.2,3.7 43.2,4 42.3,4.3 41.4,4.7 40.5,5.1 39.7,5.5 
		38.9,6 38.1,6.5 37.3,7.1 36.5,7.6 35.8,8.3 35.1,8.9 34.5,9.6 33.9,10.3 33.3,11.1 32.7,11.8 32.2,12.6 31.8,13.5 31.3,14.3 
		30.9,15.2 30.6,16.1 30.3,17 30,17.9 29.8,18.9 29.6,19.8 29.5,20.8 29.4,21.8 29.4,22.8 29.4,23.9 29.5,24.9 29.6,25.9 29.8,26.8 
		30,27.8 30.3,28.7 30.6,29.6 30.9,30.5 31.3,31.4 31.8,32.3 32.2,33.1 32.7,33.9 33.3,34.7 33.9,35.4 34.5,36.1 35.1,36.8 
		35.8,37.5 36.5,38.1 37.3,38.7 38.1,39.3 38.9,39.8 39.7,40.2 40.5,40.7 41.4,41.1 42.3,41.4 43.2,41.7 44.2,42 45.1,42.2 
		46.1,42.4 47.1,42.5 48.1,42.6 49.1,42.6 49.1,42.6 	"/>
	<polygon class="st1" points="22.7,42.6 23.7,42.6 24.7,42.5 25.7,42.4 26.6,42.2 27.6,42 28.5,41.7 29.4,41.4 30.3,41.1 31.2,40.7 
		32.1,40.2 32.9,39.8 33.7,39.3 34.5,38.7 35.2,38.1 35.9,37.5 36.6,36.8 37.3,36.1 37.9,35.4 38.5,34.7 39,33.9 39.5,33.1 40,32.3 
		40.4,31.4 40.8,30.5 41.2,29.6 41.5,28.7 41.8,27.8 42,26.8 42.2,25.9 42.3,24.9 42.4,23.9 42.4,22.8 42.4,21.8 42.3,20.8 
		42.2,19.8 42,18.9 41.8,17.9 41.5,17 41.2,16.1 40.8,15.2 40.4,14.3 40,13.5 39.5,12.6 39,11.8 38.5,11.1 37.9,10.3 37.3,9.6 
		36.6,8.9 35.9,8.3 35.2,7.6 34.5,7.1 33.7,6.5 32.9,6 32.1,5.5 31.2,5.1 30.3,4.7 29.4,4.3 28.5,4 27.6,3.7 26.6,3.5 25.7,3.4 
		24.7,3.2 23.7,3.2 22.7,3.1 21.6,3.2 20.6,3.2 19.7,3.4 18.7,3.5 17.7,3.7 16.8,4 15.9,4.3 15,4.7 14.1,5.1 13.2,5.5 12.4,6 
		11.6,6.5 10.8,7.1 10.1,7.6 9.4,8.3 8.7,8.9 8,9.6 7.4,10.3 6.8,11.1 6.3,11.8 5.7,12.6 5.3,13.5 4.8,14.3 4.4,15.2 4.1,16.1 
		3.8,17 3.5,17.9 3.3,18.9 3.1,19.8 3,20.8 2.9,21.8 2.9,22.8 2.9,23.9 3,24.9 3.1,25.9 3.3,26.8 3.5,27.8 3.8,28.7 4.1,29.6 
		4.4,30.5 4.8,31.4 5.3,32.3 5.7,33.1 6.3,33.9 6.8,34.7 7.4,35.4 8,36.1 8.7,36.8 9.4,37.5 10.1,38.1 10.8,38.7 11.6,39.3 
		12.4,39.8 13.2,40.2 14.1,40.7 15,41.1 15.9,41.4 16.8,41.7 17.7,42 18.7,42.2 19.7,42.4 20.6,42.5 21.6,42.6 22.7,42.6 22.7,42.6 
			"/>
	<polygon class="st0" points="33.6,10.7 44.1,10.7 44.1,9.6 34.5,9.6 33.6,10.7 33.6,10.7 	"/>
	<polygon class="st0" points="32,13.1 44.1,13.1 44.1,12 32.6,12 32,13.1 32,13.1 	"/>
	<polygon class="st0" points="30.8,15.5 44.1,15.5 44.1,14.4 31.3,14.4 30.8,15.5 30.8,15.5 	"/>
	<polygon class="st0" points="30,17.9 44.1,17.9 44.1,16.8 30.3,16.8 30,17.9 30,17.9 	"/>
	<polygon class="st0" points="30.5,29.4 44.1,29.4 44.1,28.3 30.1,28.3 30.5,29.4 30.5,29.4 	"/>
	<polygon class="st0" points="31.5,31.8 44.1,31.8 44.1,30.7 31,30.7 31.5,31.8 31.5,31.8 	"/>
	<polygon class="st0" points="32.9,34.1 44.1,34.1 44.1,33.1 32.2,33.1 32.9,34.1 32.9,34.1 	"/>
	<polygon class="st0" points="34.8,36.5 44.1,36.5 44.1,35.4 33.9,35.4 34.8,36.5 34.8,36.5 	"/>
	<polygon class="st0" points="29.5,20.2 44.1,20.2 44.1,19.2 29.7,19.2 29.5,20.2 29.5,20.2 	"/>
	<polygon class="st0" points="38.4,27 43.9,27 43.9,25.9 38.6,25.9 38.4,27 38.4,27 	"/>
	<polygon class="st0" points="38.8,24.6 43.9,24.6 43.9,23.5 39,23.5 38.8,24.6 38.8,24.6 	"/>
	<polygon class="st0" points="29.2,23.5 30.6,23.5 30.6,24.6 29.2,24.6 29.2,23.5 29.2,23.5 	"/>
	<polygon class="st2" points="26.5,22.2 26.4,22.2 26.3,22.2 26.2,22.2 26.1,22.2 26.1,22.2 26,22.2 25.9,22.2 25.8,22.1 25.7,22.1 
		25.6,22.1 25.5,22.1 25.3,22.1 25.2,22.1 25,22.1 24.9,22.1 24.7,22.1 24.5,22.2 24.4,22.2 24.3,22.2 24.2,22.3 24.1,22.3 24,22.4 
		24,22.4 23.9,22.5 23.9,22.6 23.8,22.6 23.8,22.7 23.8,22.8 23.8,22.9 23.9,23 23.9,23.1 24,23.1 24.1,23.3 24.3,23.4 24.5,23.5 
		24.7,23.5 24.9,23.6 25.1,23.7 25.3,23.7 25.5,23.8 25.7,23.9 25.9,24.1 26.1,24.3 26.2,24.5 26.3,24.7 26.4,25 26.4,25.4 
		26.4,25.8 26.3,26.1 26.3,26.4 26.2,26.6 26,26.9 25.9,27 25.7,27.2 25.5,27.4 25.3,27.5 25.1,27.6 24.9,27.7 24.6,27.7 24.4,27.8 
		24.2,27.8 24,27.9 23.7,27.9 23.5,27.9 23.3,27.9 23,27.9 22.8,27.9 22.5,27.9 22.3,27.9 22.2,27.8 22,27.8 21.8,27.8 21.7,27.8 
		21.6,27.8 21.4,27.7 21.3,27.7 21.2,27.7 21.1,27.6 21,27.6 20.9,27.6 21.2,26.1 21.3,26.1 21.3,26.1 21.4,26.2 21.5,26.2 
		21.7,26.2 21.8,26.2 21.9,26.3 22.1,26.3 22.3,26.3 22.4,26.3 22.6,26.4 22.8,26.4 23,26.4 23.2,26.4 23.4,26.4 23.6,26.4 
		23.8,26.4 23.9,26.3 24,26.2 24.1,26.1 24.2,26 24.3,25.9 24.3,25.8 24.3,25.7 24.3,25.5 24.3,25.4 24.2,25.2 24,25.1 23.8,25 
		23.6,24.9 23.3,24.8 23,24.7 22.8,24.6 22.5,24.5 22.3,24.3 22.1,24.1 21.9,23.8 21.8,23.5 21.7,23.2 21.7,22.7 21.8,22.5 
		21.8,22.2 21.9,22 22,21.8 22.1,21.6 22.2,21.4 22.3,21.3 22.5,21.1 22.7,21 22.9,20.9 23.1,20.8 23.4,20.7 23.7,20.6 24,20.6 
		24.4,20.6 24.8,20.6 25,20.6 25.3,20.6 25.5,20.6 25.6,20.6 25.8,20.6 26,20.6 26.1,20.6 26.2,20.6 26.3,20.6 26.4,20.7 26.5,20.7 
		26.6,20.7 26.7,20.7 26.7,20.7 26.8,20.7 26.8,20.7 26.5,22.2 26.5,22.2 	"/>
	<polyline class="st3" points="26.5,22.2 26.5,22.2 26.4,22.2 26.3,22.2 26.2,22.2 26.1,22.2 26.1,22.2 26,22.2 25.9,22.2 
		25.8,22.1 25.7,22.1 25.6,22.1 25.5,22.1 25.3,22.1 25.2,22.1 25,22.1 24.9,22.1 24.7,22.1 24.7,22.1 24.5,22.2 24.4,22.2 
		24.3,22.2 24.2,22.3 24.1,22.3 24,22.4 24,22.4 23.9,22.5 23.9,22.6 23.8,22.6 23.8,22.7 23.8,22.8 23.8,22.9 23.9,23 23.9,23.1 
		24,23.1 24,23.1 24.1,23.3 24.3,23.4 24.5,23.5 24.7,23.5 24.9,23.6 25.1,23.7 25.3,23.7 25.5,23.8 25.7,23.9 25.9,24.1 26.1,24.3 
		26.2,24.5 26.3,24.7 26.4,25 26.4,25.4 26.4,25.8 26.4,25.8 26.3,26.1 26.3,26.4 26.2,26.6 26,26.9 25.9,27 25.7,27.2 25.5,27.4 
		25.3,27.5 25.1,27.6 24.9,27.7 24.6,27.7 24.4,27.8 24.2,27.8 24,27.9 23.7,27.9 23.5,27.9 23.5,27.9 23.3,27.9 23,27.9 22.8,27.9 
		22.5,27.9 22.3,27.9 22.2,27.8 22,27.8 21.8,27.8 21.7,27.8 21.6,27.8 21.4,27.7 21.3,27.7 21.2,27.7 21.1,27.6 21,27.6 20.9,27.6 
		21.2,26.1 21.2,26.1 21.3,26.1 21.3,26.1 21.4,26.2 21.5,26.2 21.7,26.2 21.8,26.2 21.9,26.3 22.1,26.3 22.3,26.3 22.4,26.3 
		22.6,26.4 22.8,26.4 23,26.4 23.2,26.4 23.4,26.4 23.6,26.4 23.6,26.4 23.8,26.4 23.9,26.3 24,26.2 24.1,26.1 24.2,26 24.3,25.9 
		24.3,25.8 24.3,25.7 24.3,25.7 24.3,25.5 24.3,25.4 24.2,25.2 24,25.1 23.8,25 23.6,24.9 23.3,24.8 23,24.7 22.8,24.6 22.5,24.5 
		22.3,24.3 22.1,24.1 21.9,23.8 21.8,23.5 21.7,23.2 21.7,22.7 21.7,22.7 21.8,22.5 21.8,22.2 21.9,22 22,21.8 22.1,21.6 22.2,21.4 
		22.3,21.3 22.5,21.1 22.7,21 22.9,20.9 23.1,20.8 23.4,20.7 23.7,20.6 24,20.6 24.4,20.6 24.8,20.6 24.8,20.6 25,20.6 25.3,20.6 
		25.5,20.6 25.6,20.6 25.8,20.6 26,20.6 26.1,20.6 26.2,20.6 26.3,20.6 26.4,20.7 26.5,20.7 26.6,20.7 26.7,20.7 26.7,20.7 
		26.8,20.7 26.8,20.7 26.5,22.2 	"/>
	<polygon class="st2" points="28.1,19.1 29.9,19.1 29.6,20.7 30.8,20.7 30.5,22.2 29.3,22.2 28.7,25.9 28.7,26 28.7,26.1 28.8,26.2 
		28.9,26.3 29,26.3 29.1,26.4 29.3,26.4 29.4,26.4 29.6,26.4 29.7,26.4 29.8,26.4 29.9,26.4 30,26.3 30.1,26.3 30.1,26.3 30.1,26.3 
		29.9,27.5 29.9,27.6 29.8,27.6 29.8,27.6 29.7,27.6 29.7,27.7 29.6,27.7 29.6,27.7 29.5,27.7 29.4,27.7 29.4,27.8 29.3,27.8 
		29.2,27.8 29.1,27.8 29,27.8 28.9,27.8 28.8,27.8 28.3,27.8 28,27.8 27.8,27.8 27.6,27.8 27.4,27.7 27.3,27.6 27.1,27.6 27,27.5 
		26.9,27.4 26.9,27.3 26.8,27.2 26.8,27.1 26.8,27 26.8,26.8 26.8,26.7 26.8,26.5 26.8,26.4 28.1,19.1 28.1,19.1 	"/>
	<polyline class="st3" points="28.1,19.1 29.9,19.1 29.6,20.7 30.8,20.7 30.5,22.2 29.3,22.2 28.7,25.9 28.7,25.9 28.7,26 
		28.7,26.1 28.8,26.2 28.9,26.3 29,26.3 29.1,26.4 29.3,26.4 29.4,26.4 29.4,26.4 29.6,26.4 29.7,26.4 29.8,26.4 29.9,26.4 30,26.3 
		30.1,26.3 30.1,26.3 30.1,26.3 29.9,27.5 29.9,27.5 29.9,27.6 29.8,27.6 29.8,27.6 29.7,27.6 29.7,27.7 29.6,27.7 29.6,27.7 
		29.5,27.7 29.4,27.7 29.4,27.8 29.3,27.8 29.2,27.8 29.1,27.8 29,27.8 28.9,27.8 28.8,27.8 28.3,27.8 28.3,27.8 28,27.8 27.8,27.8 
		27.6,27.8 27.4,27.7 27.3,27.6 27.1,27.6 27,27.5 26.9,27.4 26.9,27.3 26.8,27.2 26.8,27.1 26.8,27 26.8,26.8 26.8,26.7 26.8,26.5 
		26.8,26.4 28.1,19.1 	"/>
	<polygon class="st2" points="32.2,24.7 32.2,24.8 32.2,25 32.2,25.1 32.2,25.2 32.3,25.3 32.3,25.5 32.4,25.6 32.5,25.7 32.6,25.8 
		32.7,25.9 32.8,26 32.9,26.1 33,26.2 33.2,26.2 33.3,26.3 33.4,26.3 33.6,26.3 33.8,26.3 33.9,26.4 34.1,26.4 34.3,26.4 34.5,26.4 
		34.6,26.4 34.8,26.4 35,26.3 35.2,26.3 35.4,26.3 35.6,26.2 35.7,26.1 35.9,26 36.1,25.9 36.3,25.8 36,27.5 35.9,27.5 35.8,27.6 
		35.7,27.6 35.6,27.7 35.5,27.7 35.4,27.7 35.3,27.7 35.2,27.8 35.1,27.8 34.9,27.8 34.8,27.8 34.7,27.8 34.5,27.8 34.3,27.8 
		34.1,27.8 33.9,27.8 33.5,27.8 33.2,27.8 32.9,27.8 32.5,27.7 32.2,27.6 31.9,27.4 31.6,27.3 31.3,27.1 31.1,26.9 30.8,26.6 
		30.6,26.3 30.5,25.9 30.4,25.5 30.3,25.1 30.3,24.6 30.3,24 30.3,23.8 30.4,23.6 30.4,23.3 30.5,23 30.6,22.8 30.7,22.5 30.9,22.2 
		31.1,21.9 31.3,21.6 31.5,21.4 31.8,21.2 32.2,21 32.6,20.8 33,20.7 33.5,20.6 34,20.6 34.3,20.6 34.5,20.6 34.8,20.6 35.1,20.7 
		35.4,20.8 35.6,20.9 35.9,21.1 36.1,21.3 36.3,21.5 36.4,21.8 36.6,22.1 36.7,22.4 36.7,22.8 36.7,23.3 36.7,23.8 36.6,24.3 
		36.5,24.8 31.7,24.8 32,23.4 34.9,23.4 34.9,23.3 34.9,23.1 34.9,23 34.9,22.8 34.8,22.7 34.8,22.6 34.7,22.5 34.7,22.4 34.6,22.3 
		34.5,22.3 34.4,22.2 34.3,22.1 34.2,22.1 34.1,22.1 34,22.1 33.8,22 33.7,22 33.6,22.1 33.5,22.1 33.4,22.1 33.3,22.2 33.2,22.2 
		33.1,22.3 33,22.4 32.9,22.5 32.8,22.6 32.7,22.7 32.7,22.8 32.6,22.9 32.6,23.1 32.5,23.2 32.5,23.3 32.2,24.7 32.2,24.7 	"/>
	<polyline class="st3" points="32.2,24.7 32.2,24.7 32.2,24.8 32.2,25 32.2,25.1 32.2,25.2 32.3,25.3 32.3,25.5 32.4,25.6 
		32.5,25.7 32.6,25.8 32.7,25.9 32.8,26 32.9,26.1 33,26.2 33.2,26.2 33.3,26.3 33.4,26.3 33.4,26.3 33.6,26.3 33.8,26.3 33.9,26.4 
		34.1,26.4 34.3,26.4 34.5,26.4 34.6,26.4 34.8,26.4 35,26.3 35.2,26.3 35.4,26.3 35.6,26.2 35.7,26.1 35.9,26 36.1,25.9 36.3,25.8 
		36,27.5 36,27.5 35.9,27.5 35.8,27.6 35.7,27.6 35.6,27.7 35.5,27.7 35.4,27.7 35.3,27.7 35.2,27.8 35.1,27.8 34.9,27.8 34.8,27.8 
		34.7,27.8 34.5,27.8 34.3,27.8 34.1,27.8 33.9,27.8 33.9,27.8 33.5,27.8 33.2,27.8 32.9,27.8 32.5,27.7 32.2,27.6 31.9,27.4 
		31.6,27.3 31.3,27.1 31.1,26.9 30.8,26.6 30.6,26.3 30.5,25.9 30.4,25.5 30.3,25.1 30.3,24.6 30.3,24 30.3,24 30.3,23.8 30.4,23.6 
		30.4,23.3 30.5,23 30.6,22.8 30.7,22.5 30.9,22.2 31.1,21.9 31.3,21.6 31.5,21.4 31.8,21.2 32.2,21 32.6,20.8 33,20.7 33.5,20.6 
		34,20.6 34,20.6 34.3,20.6 34.5,20.6 34.8,20.6 35.1,20.7 35.4,20.8 35.6,20.9 35.9,21.1 36.1,21.3 36.3,21.5 36.4,21.8 36.6,22.1 
		36.7,22.4 36.7,22.8 36.7,23.3 36.7,23.8 36.6,24.3 36.5,24.8 31.7,24.8 32,23.4 34.9,23.4 34.9,23.4 34.9,23.3 34.9,23.1 34.9,23 
		34.9,22.8 34.8,22.7 34.8,22.6 34.7,22.5 34.7,22.4 34.6,22.3 34.5,22.3 34.4,22.2 34.3,22.1 34.2,22.1 34.1,22.1 34,22.1 33.8,22 
		33.8,22 33.7,22 33.6,22.1 33.5,22.1 33.4,22.1 33.3,22.2 33.2,22.2 33.1,22.3 33,22.4 32.9,22.5 32.8,22.6 32.7,22.7 32.7,22.8 
		32.6,22.9 32.6,23.1 32.5,23.2 32.5,23.3 32.2,24.7 	"/>
	<polygon class="st2" points="48.1,21.1 48,21.1 47.9,21 47.9,21 47.8,20.9 47.7,20.9 47.5,20.8 47.4,20.8 47.3,20.8 47.2,20.7 
		47.1,20.7 46.9,20.7 46.8,20.7 46.6,20.6 46.5,20.6 46.3,20.6 46.1,20.6 46,20.6 45.8,20.6 45.6,20.7 45.4,20.7 45.2,20.7 
		45.1,20.8 44.9,20.9 44.7,21 44.5,21.2 44.3,21.4 44.2,21.6 44,21.8 43.9,22.1 43.7,22.4 43.6,22.8 43.5,23.2 43.4,23.5 43.4,23.7 
		43.4,23.9 43.4,24.2 43.4,24.4 43.5,24.6 43.5,24.8 43.6,25 43.7,25.2 43.8,25.4 44,25.5 44.1,25.7 44.3,25.8 44.5,25.9 44.7,26 
		45,26 45.1,26 45.2,26.1 45.3,26.1 45.4,26.1 45.6,26.1 45.7,26.1 45.9,26.1 46.1,26.1 46.2,26.1 46.4,26 46.6,26 46.8,25.9 
		46.9,25.9 47.1,25.8 47.2,25.7 47.3,25.6 47,27.3 47,27.4 47,27.4 46.9,27.5 46.9,27.5 46.8,27.5 46.7,27.6 46.6,27.6 46.5,27.7 
		46.3,27.7 46.1,27.8 45.9,27.8 45.7,27.8 45.4,27.8 45.1,27.8 44.8,27.8 44.4,27.8 44.1,27.8 43.8,27.7 43.5,27.6 43.2,27.5 
		42.9,27.3 42.6,27.1 42.4,26.9 42.1,26.6 41.9,26.3 41.7,26 41.5,25.6 41.4,25.2 41.3,24.8 41.3,24.3 41.3,23.8 41.4,23.2 
		41.5,22.9 41.5,22.7 41.6,22.4 41.7,22.2 41.7,21.9 41.8,21.7 41.9,21.5 42,21.3 42.1,21.1 42.2,20.9 42.3,20.7 42.4,20.5 
		42.5,20.3 42.7,20.2 42.8,20 43,19.9 43.1,19.8 43.3,19.6 43.4,19.5 43.6,19.4 43.8,19.3 43.9,19.2 44.1,19.2 44.3,19.1 44.5,19 
		44.7,19 45,18.9 45.2,18.9 45.4,18.8 45.6,18.8 45.9,18.8 46.1,18.8 46.4,18.8 46.6,18.8 46.8,18.8 47,18.9 47.1,18.9 47.3,18.9 
		47.5,19 47.7,19 47.8,19 47.9,19.1 48.1,19.1 48.2,19.2 48.3,19.2 48.4,19.2 48.4,19.2 48.4,19.3 48.1,21.1 48.1,21.1 	"/>
	<polyline class="st3" points="48.1,21.1 48.1,21.1 48,21.1 47.9,21 47.9,21 47.8,20.9 47.7,20.9 47.5,20.8 47.4,20.8 47.3,20.8 
		47.2,20.7 47.1,20.7 46.9,20.7 46.8,20.7 46.6,20.6 46.5,20.6 46.3,20.6 46.1,20.6 46.1,20.6 46,20.6 45.8,20.6 45.6,20.7 
		45.4,20.7 45.2,20.7 45.1,20.8 44.9,20.9 44.7,21 44.5,21.2 44.3,21.4 44.2,21.6 44,21.8 43.9,22.1 43.7,22.4 43.6,22.8 43.5,23.2 
		43.5,23.2 43.4,23.5 43.4,23.7 43.4,23.9 43.4,24.2 43.4,24.4 43.5,24.6 43.5,24.8 43.6,25 43.7,25.2 43.8,25.4 44,25.5 44.1,25.7 
		44.3,25.8 44.5,25.9 44.7,26 45,26 45,26 45.1,26 45.2,26.1 45.3,26.1 45.4,26.1 45.6,26.1 45.7,26.1 45.9,26.1 46.1,26.1 
		46.2,26.1 46.4,26 46.6,26 46.8,25.9 46.9,25.9 47.1,25.8 47.2,25.7 47.3,25.6 47,27.3 47,27.3 47,27.4 47,27.4 46.9,27.5 
		46.9,27.5 46.8,27.5 46.7,27.6 46.6,27.6 46.5,27.7 46.3,27.7 46.1,27.8 45.9,27.8 45.7,27.8 45.4,27.8 45.1,27.8 44.8,27.8 
		44.4,27.8 44.4,27.8 44.1,27.8 43.8,27.7 43.5,27.6 43.2,27.5 42.9,27.3 42.6,27.1 42.4,26.9 42.1,26.6 41.9,26.3 41.7,26 
		41.5,25.6 41.4,25.2 41.3,24.8 41.3,24.3 41.3,23.8 41.4,23.2 41.4,23.2 41.5,22.9 41.5,22.7 41.6,22.4 41.7,22.2 41.7,21.9 
		41.8,21.7 41.9,21.5 42,21.3 42.1,21.1 42.2,20.9 42.3,20.7 42.4,20.5 42.5,20.3 42.7,20.2 42.8,20 43,19.9 43.1,19.8 43.3,19.6 
		43.4,19.5 43.6,19.4 43.8,19.3 43.9,19.2 44.1,19.2 44.3,19.1 44.5,19 44.7,19 45,18.9 45.2,18.9 45.4,18.8 45.6,18.8 45.9,18.8 
		46.1,18.8 46.1,18.8 46.4,18.8 46.6,18.8 46.8,18.8 47,18.9 47.1,18.9 47.3,18.9 47.5,19 47.7,19 47.8,19 47.9,19.1 48.1,19.1 
		48.2,19.2 48.3,19.2 48.4,19.2 48.4,19.2 48.4,19.3 48.1,21.1 	"/>
	<polygon class="st2" points="64.5,27.8 62.7,27.8 62.8,27.1 62.8,27 62.7,27.2 62.6,27.3 62.5,27.4 62.4,27.5 62.2,27.6 62.1,27.6 
		62,27.7 61.9,27.8 61.7,27.8 61.6,27.8 61.5,27.9 61.4,27.9 61.2,27.9 61.1,27.9 61,27.9 60.8,27.9 60.5,27.9 60.2,27.8 59.9,27.7 
		59.6,27.6 59.4,27.4 59.2,27.2 59,26.9 58.8,26.6 58.7,26.3 58.6,26 58.5,25.7 58.4,25.3 58.4,25 58.4,24.7 58.5,24.3 58.5,24 
		58.6,23.6 58.7,23.2 58.9,22.9 59,22.6 59.2,22.3 59.4,22 59.6,21.7 59.8,21.5 60.1,21.3 60.3,21.2 60.6,21 60.8,20.9 61.1,20.8 
		61.4,20.8 61.6,20.7 61.9,20.7 62.1,20.7 62.3,20.7 62.5,20.8 62.6,20.8 62.8,20.9 62.9,20.9 63,21 63.2,21.1 63.3,21.1 63.4,21.2 
		63.4,21.3 63.5,21.4 63.6,21.5 63.7,21.6 63.7,21.7 63.7,21.7 63.7,21.7 64.2,19.1 66,19.1 64.5,27.8 64.5,27.8 	"/>
	<polyline class="st3" points="64.5,27.8 62.7,27.8 62.8,27.1 62.8,27 62.8,27 62.7,27.2 62.6,27.3 62.5,27.4 62.4,27.5 62.2,27.6 
		62.1,27.6 62,27.7 61.9,27.8 61.7,27.8 61.6,27.8 61.5,27.9 61.4,27.9 61.2,27.9 61.1,27.9 61,27.9 60.8,27.9 60.8,27.9 60.5,27.9 
		60.2,27.8 59.9,27.7 59.6,27.6 59.4,27.4 59.2,27.2 59,26.9 58.8,26.6 58.7,26.3 58.6,26 58.5,25.7 58.4,25.3 58.4,25 58.4,24.7 
		58.5,24.3 58.5,24 58.5,24 58.6,23.6 58.7,23.2 58.9,22.9 59,22.6 59.2,22.3 59.4,22 59.6,21.7 59.8,21.5 60.1,21.3 60.3,21.2 
		60.6,21 60.8,20.9 61.1,20.8 61.4,20.8 61.6,20.7 61.9,20.7 61.9,20.7 62.1,20.7 62.3,20.7 62.5,20.8 62.6,20.8 62.8,20.9 
		62.9,20.9 63,21 63.2,21.1 63.3,21.1 63.4,21.2 63.4,21.3 63.5,21.4 63.6,21.5 63.7,21.6 63.7,21.7 63.7,21.7 63.7,21.7 64.2,19.1 
		66,19.1 64.5,27.8 	"/>
	<polygon class="st0" points="61.5,26.2 61.7,26.2 61.9,26.2 62,26.1 62.2,26.1 62.3,26 62.4,25.9 62.6,25.8 62.7,25.6 62.8,25.5 
		62.9,25.4 63,25.2 63,25 63.1,24.9 63.2,24.7 63.2,24.5 63.2,24.3 63.3,24.2 63.3,24 63.3,23.8 63.3,23.6 63.3,23.4 63.2,23.3 
		63.2,23.1 63.1,22.9 63.1,22.8 63,22.7 62.9,22.6 62.8,22.5 62.7,22.4 62.6,22.4 62.4,22.3 62.3,22.3 62.1,22.3 62,22.3 61.8,22.4 
		61.7,22.5 61.5,22.6 61.4,22.7 61.3,22.8 61.2,22.9 61.1,23 61,23.2 60.9,23.4 60.8,23.5 60.7,23.7 60.7,23.9 60.6,24.1 60.6,24.3 
		60.6,24.6 60.6,24.9 60.6,25.2 60.7,25.5 60.8,25.8 61,26 61.2,26.2 61.5,26.2 61.5,26.2 	"/>
	<polygon class="st2" points="20.6,26.4 20.3,27.8 18.6,27.8 18.7,27.6 18.7,27.3 18.7,27.1 18.8,27 18.7,27.1 18.6,27.2 18.4,27.3 
		18.3,27.4 18.1,27.5 18,27.6 17.8,27.7 17.6,27.8 17.4,27.8 17.2,27.9 17,27.9 16.8,27.9 16.7,27.9 16.5,28 16.3,27.9 16.1,27.9 
		15.9,27.8 15.6,27.8 15.5,27.7 15.3,27.6 15.2,27.5 15,27.4 14.9,27.2 14.8,27.1 14.7,27 14.7,26.8 14.6,26.7 14.6,26.5 14.6,26.4 
		14.5,26.2 14.5,26.1 14.5,25.9 14.5,25.7 14.6,25.4 14.6,25.2 14.7,25 14.8,24.7 15,24.6 15.1,24.4 15.3,24.2 15.4,24 15.6,23.9 
		15.8,23.8 16,23.7 16.2,23.6 16.4,23.5 16.7,23.4 16.9,23.4 16.9,23.4 16.9,23.4 17,23.4 17.1,23.4 17.1,23.4 17.2,23.4 17.3,23.4 
		17.4,23.3 17.6,23.3 17.7,23.3 17.8,23.3 17.9,23.3 18,23.3 18.1,23.3 18.2,23.3 18.3,23.3 18.4,23.3 18.6,23.3 18.7,23.3 
		18.9,23.3 19,23.3 19.1,23.3 19.2,23.3 19.2,23.3 19.2,23.3 19.2,23.1 19.3,23 19.3,22.9 19.3,22.7 19.2,22.6 19.1,22.5 19,22.4 
		18.9,22.3 18.7,22.2 18.6,22.2 18.4,22.2 18.2,22.2 18,22.2 17.8,22.2 17.6,22.2 17.4,22.2 17.2,22.2 17,22.2 16.7,22.2 16.5,22.3 
		16.4,22.3 16.2,22.3 16,22.4 15.9,22.4 15.8,22.5 15.7,22.5 15.6,22.5 16.1,20.9 16.2,20.9 16.4,20.8 16.5,20.8 16.7,20.7 
		16.8,20.7 17,20.7 17.2,20.7 17.4,20.6 17.5,20.6 17.7,20.6 17.9,20.6 18.1,20.6 18.4,20.6 18.6,20.6 18.8,20.6 19,20.6 19.2,20.6 
		19.4,20.7 19.6,20.7 19.9,20.8 20.1,20.9 20.3,21 20.5,21.1 20.6,21.2 20.8,21.3 21,21.5 21.1,21.7 21.2,21.9 21.3,22.1 21.3,22.3 
		21.3,22.6 21.3,22.8 20.6,26.4 20.6,26.4 	"/>
	<polyline class="st3" points="20.6,26.4 20.3,27.8 18.6,27.8 18.6,27.8 18.7,27.6 18.7,27.3 18.7,27.1 18.8,27 18.8,27 18.7,27.1 
		18.6,27.2 18.4,27.3 18.3,27.4 18.1,27.5 18,27.6 17.8,27.7 17.6,27.8 17.4,27.8 17.2,27.9 17,27.9 16.8,27.9 16.7,27.9 16.5,28 
		16.3,27.9 16.1,27.9 16.1,27.9 15.9,27.8 15.6,27.8 15.5,27.7 15.3,27.6 15.2,27.5 15,27.4 14.9,27.2 14.8,27.1 14.7,27 14.7,26.8 
		14.6,26.7 14.6,26.5 14.6,26.4 14.5,26.2 14.5,26.1 14.5,25.9 14.5,25.9 14.5,25.7 14.6,25.4 14.6,25.2 14.7,25 14.8,24.7 15,24.6 
		15.1,24.4 15.3,24.2 15.4,24 15.6,23.9 15.8,23.8 16,23.7 16.2,23.6 16.4,23.5 16.7,23.4 16.9,23.4 16.9,23.4 16.9,23.4 16.9,23.4 
		17,23.4 17.1,23.4 17.1,23.4 17.2,23.4 17.3,23.4 17.4,23.3 17.6,23.3 17.7,23.3 17.8,23.3 17.9,23.3 18,23.3 18.1,23.3 18.2,23.3 
		18.3,23.3 18.3,23.3 18.4,23.3 18.6,23.3 18.7,23.3 18.9,23.3 19,23.3 19.1,23.3 19.2,23.3 19.2,23.3 19.2,23.3 19.2,23.3 
		19.2,23.1 19.3,23 19.3,22.9 19.3,22.9 19.3,22.7 19.2,22.6 19.1,22.5 19,22.4 18.9,22.3 18.7,22.2 18.6,22.2 18.4,22.2 18.4,22.2 
		18.2,22.2 18,22.2 17.8,22.2 17.6,22.2 17.4,22.2 17.2,22.2 17,22.2 16.7,22.2 16.5,22.3 16.4,22.3 16.2,22.3 16,22.4 15.9,22.4 
		15.8,22.5 15.7,22.5 15.6,22.5 16.1,20.9 16.1,20.9 16.2,20.9 16.4,20.8 16.5,20.8 16.7,20.7 16.8,20.7 17,20.7 17.2,20.7 
		17.4,20.6 17.5,20.6 17.7,20.6 17.9,20.6 18.1,20.6 18.4,20.6 18.6,20.6 18.8,20.6 19,20.6 19,20.6 19.2,20.6 19.4,20.7 19.6,20.7 
		19.9,20.8 20.1,20.9 20.3,21 20.5,21.1 20.6,21.2 20.8,21.3 21,21.5 21.1,21.7 21.2,21.9 21.3,22.1 21.3,22.3 21.3,22.6 21.3,22.8 
		20.6,26.4 	"/>
	<polygon class="st1" points="19,24.6 19,24.6 18.9,24.6 18.9,24.5 18.8,24.5 18.8,24.5 18.7,24.5 18.6,24.5 18.5,24.5 18.4,24.5 
		18.3,24.5 18.2,24.5 18,24.5 17.9,24.6 17.9,24.6 17.8,24.6 17.7,24.6 17.7,24.6 17.6,24.7 17.5,24.7 17.5,24.7 17.4,24.8 
		17.3,24.8 17.2,24.8 17.1,24.9 17,25 16.9,25 16.8,25.1 16.8,25.2 16.7,25.3 16.7,25.4 16.6,25.5 16.6,25.6 16.6,25.8 16.6,26 
		16.7,26.1 16.8,26.2 16.9,26.3 17,26.3 17.1,26.4 17.2,26.4 17.4,26.4 17.6,26.3 17.8,26.3 17.9,26.3 18,26.2 18.2,26.2 18.3,26.1 
		18.4,26 18.5,26 18.5,25.9 18.6,25.8 18.7,25.7 18.7,25.6 18.8,25.6 18.8,25.5 18.8,25.4 18.9,25.2 18.9,25 18.9,24.8 19,24.6 
		19,24.6 	"/>
	<polygon class="st2" points="6.6,27.8 4.8,27.8 6.3,19.1 9.4,19.1 9.7,24.3 11.9,19.1 15.2,19.1 13.6,27.8 11.8,27.8 13,21.3 
		12.9,21.3 10.2,27.8 8.1,27.8 8.1,27.6 8.1,26.8 8,25.8 8,24.6 7.9,23.4 7.8,22.4 7.8,21.6 7.8,21.3 7.8,21.3 7.7,21.3 7.7,21.3 
		7.7,21.3 6.6,27.8 6.6,27.8 	"/>
	<polyline class="st3" points="6.6,27.8 4.8,27.8 6.3,19.1 9.4,19.1 9.7,24.3 11.9,19.1 15.2,19.1 13.6,27.8 11.8,27.8 13,21.3 
		12.9,21.3 10.2,27.8 8.1,27.8 8.1,27.8 8.1,27.6 8.1,26.8 8,25.8 8,24.6 7.9,23.4 7.8,22.4 7.8,21.6 7.8,21.3 7.8,21.3 7.8,21.3 
		7.7,21.3 7.7,21.3 7.7,21.3 6.6,27.8 	"/>
	<polygon class="st2" points="53.7,26.4 53.4,27.8 51.7,27.8 51.7,27.6 51.7,27.3 51.7,27.1 51.7,27.1 51.7,27.2 51.6,27.3 
		51.4,27.4 51.3,27.5 51.2,27.5 51,27.6 50.8,27.7 50.7,27.8 50.5,27.8 50.3,27.9 50.1,27.9 49.9,27.9 49.7,27.9 49.5,28 49.4,27.9 
		49.2,27.9 48.9,27.8 48.7,27.8 48.6,27.7 48.4,27.6 48.2,27.5 48.1,27.4 48,27.2 47.9,27.1 47.8,27 47.8,26.8 47.7,26.7 47.7,26.5 
		47.7,26.4 47.6,26.2 47.6,26.1 47.6,25.9 47.6,25.7 47.7,25.4 47.7,25.2 47.8,25 47.9,24.7 48,24.6 48.2,24.4 48.3,24.2 48.5,24 
		48.7,23.9 48.9,23.8 49.1,23.7 49.3,23.6 49.5,23.5 49.7,23.4 50,23.4 50,23.4 50,23.4 50.1,23.4 50.1,23.4 50.2,23.4 50.3,23.4 
		50.4,23.4 50.5,23.3 50.6,23.3 50.7,23.3 50.9,23.3 51,23.3 51.1,23.3 51.2,23.3 51.3,23.3 51.3,23.3 51.5,23.3 51.7,23.3 
		51.8,23.3 52,23.3 52.1,23.3 52.2,23.3 52.2,23.3 52.3,23.3 52.3,23.3 52.3,23.1 52.3,23 52.3,22.9 52.3,22.7 52.3,22.6 52.2,22.5 
		52.1,22.4 52,22.3 51.8,22.2 51.7,22.2 51.5,22.2 51.3,22.2 51.1,22.2 50.9,22.2 50.7,22.2 50.5,22.2 50.3,22.2 50.1,22.2 
		49.8,22.2 49.6,22.3 49.5,22.3 49.3,22.3 49.1,22.4 49,22.4 48.9,22.5 48.8,22.5 48.7,22.5 49.2,20.9 49.3,20.9 49.5,20.8 
		49.6,20.8 49.8,20.7 49.9,20.7 50.1,20.7 50.3,20.7 50.5,20.6 50.6,20.6 50.8,20.6 51,20.6 51.2,20.6 51.4,20.6 51.7,20.6 
		51.9,20.6 52.1,20.6 52.3,20.6 52.5,20.7 52.7,20.7 52.9,20.8 53.1,20.9 53.3,21 53.5,21.1 53.7,21.2 53.9,21.3 54,21.5 54.2,21.7 
		54.3,21.9 54.3,22.1 54.4,22.3 54.4,22.6 54.4,22.8 53.7,26.4 53.7,26.4 	"/>
	<polygon class="st2" points="53.4,27.9 53.4,27.8 53.7,26.4 53.6,26.4 53.3,27.8 53.4,27.8 53.4,27.9 53.4,27.9 53.4,27.8 
		53.4,27.9 53.4,27.9 	"/>
	<polygon class="st2" points="51.7,27.8 51.7,27.9 53.4,27.9 53.4,27.8 51.7,27.8 51.7,27.8 51.7,27.8 51.7,27.9 51.7,27.9 
		51.7,27.8 51.7,27.8 	"/>
	<polygon class="st2" points="51.8,27.1 51.7,27 51.7,27.1 51.7,27.3 51.7,27.6 51.7,27.8 51.7,27.8 51.8,27.6 51.8,27.3 51.8,27.1 
		51.8,27.1 51.7,27 51.8,27.1 51.8,27.1 	"/>
	<polygon class="st2" points="49.2,27.9 49.2,27.9 49.4,28 49.5,28 49.7,28 49.9,28 50.1,27.9 50.3,27.9 50.5,27.9 50.7,27.8 
		50.8,27.7 51,27.7 51.2,27.6 51.3,27.5 51.5,27.4 51.6,27.3 51.7,27.2 51.8,27.1 51.7,27 51.6,27.1 51.5,27.2 51.4,27.3 51.3,27.4 
		51.1,27.5 51,27.6 50.8,27.7 50.7,27.7 50.5,27.8 50.3,27.8 50.1,27.9 49.9,27.9 49.7,27.9 49.5,27.9 49.4,27.9 49.2,27.9 
		49.2,27.9 49.2,27.9 49.2,27.9 	"/>
	<polygon class="st2" points="47.6,25.9 47.6,25.9 47.6,26.1 47.6,26.2 47.6,26.4 47.6,26.5 47.7,26.7 47.7,26.8 47.8,27 47.9,27.1 
		48,27.3 48.1,27.4 48.2,27.5 48.4,27.6 48.5,27.7 48.7,27.8 48.9,27.9 49.2,27.9 49.2,27.9 49,27.8 48.8,27.7 48.6,27.7 48.4,27.6 
		48.3,27.5 48.1,27.3 48,27.2 47.9,27.1 47.9,26.9 47.8,26.8 47.8,26.7 47.7,26.5 47.7,26.4 47.7,26.2 47.7,26.1 47.7,25.9 
		47.7,25.9 47.6,25.9 47.6,25.9 	"/>
	<polygon class="st2" points="50,23.4 50,23.4 49.7,23.4 49.5,23.5 49.3,23.5 49.1,23.6 48.9,23.7 48.7,23.9 48.5,24 48.3,24.2 
		48.2,24.3 48,24.5 47.9,24.7 47.8,24.9 47.7,25.2 47.6,25.4 47.6,25.7 47.6,25.9 47.7,25.9 47.7,25.7 47.7,25.4 47.8,25.2 47.9,25 
		48,24.8 48.1,24.6 48.2,24.4 48.4,24.2 48.5,24.1 48.7,23.9 48.9,23.8 49.1,23.7 49.3,23.6 49.5,23.5 49.7,23.5 50,23.4 50,23.4 
		50,23.4 50,23.4 	"/>
	<polygon class="st2" points="51.3,23.2 51.3,23.2 51.3,23.2 51.2,23.2 51.1,23.2 51,23.3 50.9,23.3 50.7,23.3 50.6,23.3 50.5,23.3 
		50.4,23.3 50.3,23.3 50.2,23.3 50.1,23.3 50.1,23.4 50,23.4 50,23.4 50,23.4 50,23.4 50,23.4 50,23.4 50.1,23.4 50.1,23.4 
		50.2,23.4 50.3,23.4 50.4,23.4 50.5,23.4 50.6,23.4 50.7,23.4 50.9,23.3 51,23.3 51.1,23.3 51.2,23.3 51.3,23.3 51.3,23.3 
		51.3,23.3 51.3,23.2 51.3,23.2 	"/>
	<polygon class="st2" points="52.2,23.3 52.3,23.3 52.2,23.3 52.2,23.3 52.1,23.3 52,23.2 51.8,23.2 51.7,23.2 51.5,23.2 51.3,23.2 
		51.3,23.3 51.5,23.3 51.7,23.3 51.8,23.3 52,23.3 52.1,23.3 52.2,23.3 52.2,23.3 52.3,23.3 52.3,23.3 52.3,23.3 52.3,23.4 
		52.3,23.3 52.2,23.3 52.2,23.3 	"/>
	<polygon class="st2" points="52.3,22.9 52.3,22.9 52.3,23 52.3,23.1 52.2,23.3 52.2,23.3 52.3,23.3 52.3,23.3 52.3,23.1 52.4,23 
		52.4,22.9 52.4,22.9 52.3,22.9 52.3,22.9 	"/>
	<polygon class="st2" points="51.5,22.2 51.5,22.2 51.7,22.2 51.8,22.3 51.9,22.3 52,22.4 52.1,22.5 52.2,22.6 52.3,22.7 52.3,22.9 
		52.4,22.9 52.4,22.7 52.3,22.6 52.2,22.4 52.1,22.3 52,22.2 51.8,22.2 51.7,22.1 51.5,22.1 51.5,22.1 51.5,22.2 51.5,22.2 	"/>
	<polygon class="st2" points="48.7,22.5 48.7,22.6 48.8,22.5 48.9,22.5 49,22.5 49.1,22.4 49.3,22.4 49.5,22.3 49.7,22.3 49.8,22.3 
		50.1,22.3 50.3,22.2 50.5,22.2 50.7,22.2 50.9,22.2 51.1,22.2 51.3,22.2 51.5,22.2 51.5,22.1 51.3,22.1 51.1,22.1 50.9,22.1 
		50.7,22.1 50.5,22.1 50.3,22.2 50.1,22.2 49.8,22.2 49.6,22.2 49.4,22.3 49.3,22.3 49.1,22.3 49,22.4 48.8,22.4 48.7,22.5 
		48.7,22.5 48.7,22.5 48.7,22.5 48.7,22.5 	"/>
	<polygon class="st2" points="49.1,20.9 49.1,20.9 48.7,22.5 48.7,22.5 49.2,20.9 49.2,21 49.1,20.9 49.1,20.9 49.1,20.9 49.1,20.9 
		49.1,20.9 	"/>
	<polygon class="st2" points="52.1,20.6 52.1,20.6 51.9,20.6 51.7,20.6 51.4,20.6 51.2,20.6 51,20.6 50.8,20.6 50.6,20.6 50.5,20.6 
		50.3,20.6 50.1,20.6 49.9,20.7 49.8,20.7 49.6,20.7 49.4,20.8 49.3,20.8 49.1,20.9 49.2,21 49.3,20.9 49.5,20.9 49.6,20.8 
		49.8,20.8 49.9,20.7 50.1,20.7 50.3,20.7 50.5,20.7 50.6,20.7 50.8,20.7 51,20.7 51.2,20.7 51.4,20.7 51.7,20.7 51.9,20.7 
		52.1,20.7 52.1,20.7 52.1,20.6 52.1,20.6 	"/>
	<polygon class="st2" points="54.4,22.8 54.4,22.8 54.4,22.6 54.4,22.3 54.4,22.1 54.3,21.9 54.2,21.7 54.1,21.5 53.9,21.3 
		53.7,21.2 53.5,21 53.3,20.9 53.1,20.8 52.9,20.7 52.7,20.7 52.5,20.6 52.3,20.6 52.1,20.6 52.1,20.7 52.3,20.7 52.5,20.7 
		52.7,20.8 52.9,20.8 53.1,20.9 53.3,21 53.5,21.1 53.7,21.2 53.9,21.4 54,21.5 54.1,21.7 54.2,21.9 54.3,22.1 54.3,22.3 54.3,22.6 
		54.3,22.8 54.3,22.8 54.4,22.8 54.4,22.8 	"/>
	<polygon class="st2" points="53.7,26.4 53.7,26.4 54.4,22.8 54.3,22.8 53.6,26.4 53.6,26.4 53.7,26.4 53.7,26.4 	"/>
	<polygon class="st0" points="52,24.6 52,24.6 52,24.5 52,24.5 51.9,24.5 51.8,24.5 51.7,24.5 51.6,24.5 51.5,24.5 51.4,24.5 
		51.3,24.5 51.2,24.5 51.1,24.6 51,24.6 50.9,24.6 50.8,24.6 50.8,24.6 50.7,24.6 50.7,24.6 50.6,24.7 50.5,24.7 50.4,24.7 
		50.4,24.8 50.3,24.8 50.2,24.9 50.1,24.9 50,25 49.9,25.1 49.9,25.2 49.8,25.3 49.8,25.4 49.7,25.5 49.7,25.6 49.7,25.8 49.7,26 
		49.8,26.1 49.9,26.2 50,26.3 50.1,26.3 50.2,26.4 50.3,26.4 50.5,26.4 50.7,26.3 50.9,26.3 51,26.3 51.2,26.2 51.3,26.1 51.4,26.1 
		51.5,26 51.6,25.9 51.7,25.8 51.8,25.8 51.8,25.7 51.9,25.6 51.9,25.5 51.9,25.4 51.9,25.4 52,25.2 52,25 52,24.8 52,24.6 52,24.6 
			"/>
	<polygon class="st2" points="54.2,27.8 56,27.8 56,27.8 56.7,24 56.7,23.9 56.8,23.8 56.8,23.6 56.9,23.5 56.9,23.3 57,23.2 
		57.1,23 57.2,22.9 57.3,22.8 57.5,22.7 57.6,22.6 57.8,22.5 58,22.4 58.2,22.4 58.4,22.4 58.7,22.3 58.8,22.3 58.8,22.3 58.9,22.3 
		58.9,22.3 59.2,20.6 59,20.6 58.8,20.7 58.6,20.7 58.5,20.7 58.3,20.8 58.2,20.9 58,20.9 57.9,21 57.8,21.1 57.7,21.2 57.6,21.3 
		57.5,21.4 57.4,21.5 57.3,21.7 57.2,21.8 57.1,21.9 57.3,20.7 55.4,20.7 54.2,27.8 54.2,27.8 54.2,27.8 	"/>
	<polyline class="st3" points="54.2,27.8 56,27.8 56,27.8 56.7,24 56.7,24 56.7,23.9 56.8,23.8 56.8,23.6 56.9,23.5 56.9,23.3 
		57,23.2 57.1,23 57.2,22.9 57.3,22.8 57.5,22.7 57.6,22.6 57.8,22.5 58,22.4 58.2,22.4 58.4,22.4 58.7,22.3 58.7,22.3 58.8,22.3 
		58.8,22.3 58.9,22.3 58.9,22.3 59.2,20.6 59.2,20.6 59,20.6 58.8,20.7 58.6,20.7 58.5,20.7 58.3,20.8 58.2,20.9 58,20.9 57.9,21 
		57.8,21.1 57.7,21.2 57.6,21.3 57.5,21.4 57.4,21.5 57.3,21.7 57.2,21.8 57.1,21.9 57.3,20.7 55.4,20.7 54.2,27.8 54.2,27.8 	"/>
	<polygon class="st2" points="36.5,27.8 38.4,27.8 38.4,27.8 39.1,24 39.1,23.9 39.1,23.8 39.2,23.6 39.2,23.5 39.3,23.4 39.3,23.2 
		39.4,23.1 39.5,23 39.6,22.9 39.7,22.8 39.9,22.7 40,22.6 40.2,22.6 40.4,22.5 40.6,22.5 40.9,22.5 40.9,22.5 41,22.5 41,22.5 
		41,22.5 41.1,22.5 41.1,22.5 41.1,22.5 41.1,22.5 41.1,22.5 41.1,22.4 41.2,22.3 41.2,22.1 41.2,22 41.3,21.8 41.3,21.6 41.4,21.4 
		41.5,21.3 41.5,21.1 41.6,21 41.7,20.9 41.7,20.8 41.8,20.7 41.8,20.7 41.8,20.7 41.8,20.7 41.8,20.7 41.7,20.6 41.7,20.6 
		41.7,20.6 41.6,20.6 41.6,20.6 41.5,20.6 41.3,20.6 41.1,20.7 40.9,20.7 40.8,20.7 40.6,20.8 40.5,20.9 40.4,20.9 40.2,21 
		40.1,21.1 40,21.2 39.9,21.3 39.8,21.4 39.7,21.5 39.6,21.6 39.5,21.8 39.4,21.9 39.7,20.7 37.8,20.7 36.5,27.8 36.5,27.8 
		36.5,27.8 	"/>
	<polyline class="st3" points="36.5,27.8 38.4,27.8 38.4,27.8 39.1,24 39.1,24 39.1,23.9 39.1,23.8 39.2,23.6 39.2,23.5 39.3,23.4 
		39.3,23.2 39.4,23.1 39.5,23 39.6,22.9 39.7,22.8 39.9,22.7 40,22.6 40.2,22.6 40.4,22.5 40.6,22.5 40.9,22.5 40.9,22.5 40.9,22.5 
		41,22.5 41,22.5 41,22.5 41.1,22.5 41.1,22.5 41.1,22.5 41.1,22.5 41.1,22.5 41.1,22.5 41.1,22.4 41.2,22.3 41.2,22.1 41.2,22 
		41.3,21.8 41.3,21.6 41.4,21.4 41.4,21.4 41.5,21.3 41.5,21.1 41.6,21 41.7,20.9 41.7,20.8 41.8,20.7 41.8,20.7 41.8,20.7 
		41.8,20.7 41.8,20.7 41.8,20.7 41.7,20.6 41.7,20.6 41.7,20.6 41.6,20.6 41.6,20.6 41.5,20.6 41.5,20.6 41.3,20.6 41.1,20.7 
		40.9,20.7 40.8,20.7 40.6,20.8 40.5,20.9 40.4,20.9 40.2,21 40.1,21.1 40,21.2 39.9,21.3 39.8,21.4 39.7,21.5 39.6,21.6 39.5,21.8 
		39.4,21.9 39.7,20.7 37.8,20.7 36.5,27.8 36.5,27.8 	"/>
</g>
</svg>
