<?xml version="1.0" encoding="utf-8"?>
<!-- Generator: Adobe Illustrator 19.0.0, SVG Export Plug-In . SVG Version: 6.00 Build 0)  -->
<svg version="1.1" id="Layer_1" xmlns="http://www.w3.org/2000/svg" xmlns:xlink="http://www.w3.org/1999/xlink" x="0px" y="0px"
	 viewBox="0 0 73 45" style="enable-background:new 0 0 73 45;" xml:space="preserve">
<g>
	<path d="M63.6,17c-0.8-0.4-2-0.7-3.8-0.7c-0.8,0-1.7,0.1-2.5,0.2c-0.6,0.1-0.7,0.1-1.1,0.2c-0.8,0.2-0.9,1-0.9,1L55,18.8
		c-0.1,0.7,0.2,0.6,0.4,0.6c0.3-0.1,0.5-0.2,1.2-0.4c0.7-0.2,1.4-0.3,2-0.3c0.8,0,1.5,0.1,1.9,0.3c0.4,0.2,0.6,0.5,0.6,1
		c0,0.1,0,0.2,0,0.3c0,0.1-0.1,0.2-0.3,0.2c-1.2,0.1-2.1,0.2-3.1,0.3c-1,0.1-1.9,0.4-2.7,0.7c-0.8,0.4-1.4,0.8-1.8,1.4
		c-0.4,0.6-0.6,1.3-0.6,2.2c0,0.8,0.3,1.5,0.9,2c0.6,0.5,1.3,0.8,2.2,0.8c0.6,0,1,0,1.3-0.1c0.3-0.1,0.7-0.2,1-0.3
		c0.3-0.1,0.6-0.3,0.9-0.5c0.3-0.2,0.5-0.3,0.8-0.5l0,0l-0.1,0.3c0,0,0,0,0,0l0,0c-0.1,0.4,0.2,0.7,0.6,0.8l0,0h0l0,0
		c0.3,0,1.2,0,1.6,0h0.3c0,0,0,0,0,0c0.4-0.1,0.8-0.4,0.9-0.8l1.5-6.6c0-0.2,0.1-0.3,0.1-0.5c0-0.2,0-0.4,0-0.5
		C64.8,18.2,64.4,17.5,63.6,17z M59.9,24.9c-0.3,0.2-0.5,0.3-0.8,0.4c-0.4,0.2-0.8,0.2-1.1,0.2c-0.5,0-0.9-0.1-1.2-0.2
		c-0.3-0.1-0.4-0.4-0.4-0.8c0-0.4,0.1-0.8,0.3-1c0.2-0.3,0.5-0.5,0.9-0.6c0.4-0.1,0.8-0.2,1.4-0.3c0.5-0.1,1.4-0.2,1.5-0.2
		c0.1,0,0.2-0.1,0.1,0.3c0,0.1-0.3,1.3-0.4,1.8C60.2,24.7,60,24.9,59.9,24.9z"/>
	<path d="M37.2,16.5c-0.5,0-1,0.4-1.3,0.8c0,0-3,5.2-3.3,5.7c-0.2,0.3-0.3,0.1-0.4,0c0-0.1-0.9-5.6-0.9-5.6
		c-0.1-0.4-0.6-0.8-1.1-0.8l-1.9,0c-0.5,0-0.7,0.4-0.6,0.8c0,0,1.4,8.1,1.7,10c0.1,1.1,0,1.2,0,1.2l-1.9,3.2
		c-0.3,0.4-0.1,0.8,0.3,0.8l2.2,0c0.5,0,1-0.4,1.3-0.8l8.4-14.2c0,0,0.8-1.2,0.1-1.2C39.2,16.5,37.2,16.5,37.2,16.5"/>
	<path d="M10.8,19.4c-0.6,0.5-1.5,0.7-2.7,0.7H7.6c-0.5,0-0.7-0.4-0.6-0.8l0.6-2.7c0.1-0.4,0.5-0.8,1-0.8l0.7,0
		c0.8,0,1.4,0.1,1.8,0.4c0.4,0.3,0.6,0.7,0.6,1.3C11.7,18.3,11.4,18.9,10.8,19.4 M15.3,15.2c-0.3-0.5-0.7-0.9-1.2-1.2
		c-0.5-0.3-1.1-0.5-1.8-0.7c-0.7-0.1-1.5-0.2-2.5-0.2l-4.4,0c-0.5,0-0.9,0.4-1,0.8l-3,12.9c-0.1,0.4,0.2,0.8,0.6,0.8h2.1
		c0.5,0,0.9-0.4,1-0.8L6,23.6c0.1-0.4,0.5-0.8,1-0.8h0.6c2.6,0,4.6-0.5,6-1.6c1.4-1,2.1-2.4,2.1-4.2C15.7,16.3,15.6,15.7,15.3,15.2"
		/>
	<path d="M48.9,19.5c-0.6,0.5-1.5,0.7-2.6,0.7h-0.5c-0.5,0-0.7-0.4-0.6-0.8l0.6-2.7c0.1-0.4,0.6-0.8,1-0.8l0.7,0
		c0.8,0,1.4,0.1,1.8,0.4c0.4,0.3,0.6,0.7,0.6,1.3C49.9,18.3,49.6,19,48.9,19.5 M53.5,15.2c-0.3-0.5-0.7-0.9-1.2-1.2
		c-0.5-0.3-1.1-0.5-1.8-0.7c-0.7-0.1-1.5-0.2-2.5-0.2l-4.4,0c-0.5,0-0.9,0.4-1,0.8l-3,12.9c-0.1,0.4,0.2,0.8,0.6,0.8l2.1,0
		c0.4,0,0.9-0.4,1-0.8l0.7-3.1c0.1-0.4,0.6-0.8,1-0.8h0.6c2.6,0,4.6-0.5,6-1.6c1.4-1.1,2.1-2.4,2.1-4.2
		C53.9,16.4,53.7,15.7,53.5,15.2"/>
	<path d="M25.5,17c-0.8-0.4-2-0.7-3.8-0.7c-0.8,0-1.7,0.1-2.5,0.2c-0.6,0.1-0.7,0.1-1.1,0.2c-0.8,0.2-0.9,1-0.9,1l-0.3,1.1
		c-0.1,0.7,0.2,0.6,0.4,0.6c0.3-0.1,0.5-0.2,1.2-0.4c0.7-0.2,1.4-0.3,2-0.3c0.8,0,1.5,0.1,1.9,0.3c0.4,0.2,0.6,0.5,0.6,1
		c0,0.1,0,0.2,0,0.3c0,0.1-0.1,0.2-0.3,0.2c-1.2,0.1-2.1,0.2-3.1,0.3c-1,0.1-1.9,0.4-2.7,0.7c-0.8,0.4-1.4,0.8-1.8,1.4
		c-0.4,0.6-0.6,1.3-0.6,2.2c0,0.8,0.3,1.5,0.9,2c0.6,0.5,1.3,0.8,2.2,0.8c0.6,0,1,0,1.3-0.1c0.3-0.1,0.7-0.2,1-0.3
		c0.3-0.1,0.6-0.3,0.9-0.5c0.3-0.2,0.5-0.3,0.8-0.5l0,0l-0.1,0.3c0,0,0,0,0,0l0,0c-0.1,0.4,0.2,0.7,0.6,0.8l0,0h0l0,0
		c0.3,0,1.2,0,1.6,0h0.3c0,0,0,0,0,0c0.4-0.1,0.8-0.4,0.9-0.8l1.5-6.6c0-0.2,0.1-0.3,0.1-0.5c0-0.2,0-0.4,0-0.5
		C26.7,18.2,26.2,17.5,25.5,17z M21.7,24.9c-0.3,0.2-0.5,0.3-0.8,0.4c-0.4,0.2-0.8,0.2-1.1,0.2c-0.5,0-0.9-0.1-1.2-0.2
		c-0.3-0.2-0.4-0.4-0.4-0.8c0-0.4,0.1-0.8,0.3-1c0.2-0.3,0.5-0.5,0.9-0.6c0.4-0.1,0.8-0.2,1.4-0.3c0.5-0.1,1.4-0.2,1.5-0.2
		c0.1,0,0.2-0.1,0.1,0.3c0,0.1-0.3,1.3-0.4,1.8C22,24.6,21.8,24.9,21.7,24.9z"/>
	<g>
		<g>
			<path d="M70.8,13.2H69c0,0,0,0,0,0l0,0c-0.4,0-0.8,0.3-1,0.7c0,0,0,0.1,0,0.1c0,0,0,0.2-0.1,0.6l-2.6,11.7
				c-0.1,0.3-0.1,0.4-0.1,0.5l0,0c-0.1,0.4,0.2,0.7,0.6,0.8l0,0h2c0.4,0,0.8-0.3,1-0.7c0,0,0-0.1,0-0.1L71.5,14l0,0
				C71.6,13.6,71.3,13.2,70.8,13.2z"/>
		</g>
	</g>
</g>
</svg>
