<?xml version="1.0" encoding="utf-8"?>
<!-- Generator: Adobe Illustrator 16.0.2, SVG Export Plug-In . SVG Version: 6.00 Build 0)  -->
<!DOCTYPE svg PUBLIC "-//W3C//DTD SVG 1.1//EN" "http://www.w3.org/Graphics/SVG/1.1/DTD/svg11.dtd">
<svg version="1.1" id="Layer_1" xmlns="http://www.w3.org/2000/svg" xmlns:xlink="http://www.w3.org/1999/xlink" x="0px" y="0px"
	 width="74.769px" height="70.983px" viewBox="0 0 74.769 70.983" enable-background="new 0 0 74.769 70.983" xml:space="preserve">
<g>
	<path d="M60.535,40.18c-0.075-0.01-0.151-0.015-0.227-0.017c-1.186,0.006-2.172,0.91-2.28,2.09c0,0.49-0.11,1-0.189,1.46
		C55.54,58.341,41.82,68.336,27.192,66.038C12.565,63.74,2.57,50.02,4.869,35.392c2.163-13.774,14.523-23.59,28.43-22.579
		l-3.69,3.87c-0.997,0.979-1.012,2.581-0.033,3.578s2.581,1.012,3.578,0.033c0.04-0.039,0.078-0.079,0.115-0.121l6-6.34l3.49-3.66
		l-3.65-3.48l-6.34-6c-1.012-0.958-2.608-0.918-3.57,0.09c-0.951,1.02-0.897,2.616,0.12,3.57l4.12,3.92
		C16.14,7.142,1.199,20.25,0.067,37.549c-1.057,16.172,10.369,30.487,26.371,33.045c1.634,0.258,3.286,0.388,4.94,0.39
		c15.426-0.043,28.538-11.282,30.94-26.521c0.09-0.59,0.17-1.159,0.23-1.729C62.698,41.473,61.796,40.328,60.535,40.18z"/>
	<path d="M74.769,20.073c-0.045-1.494-0.725-2.899-1.87-3.86c1.146-0.961,1.825-2.365,1.87-3.86c0-4.21-5.881-7.38-13.68-7.38
		c-7.801,0-13.681,3.17-13.681,7.38c0.057,1.503,0.756,2.909,1.92,3.86c-2.132,1.622-2.545,4.665-0.923,6.797
		c0.265,0.348,0.575,0.658,0.923,0.923c-1.164,0.952-1.863,2.358-1.92,3.86c0,4.21,5.88,7.38,13.681,7.38
		c7.799,0,13.68-3.17,13.68-7.38c-0.045-1.494-0.725-2.899-1.87-3.86C74.044,22.972,74.724,21.568,74.769,20.073z M61.089,31.173
		c-6.011,0-9.681-2.19-9.681-3.38c0-0.47,0.58-1.1,1.649-1.68c5.208,1.782,10.862,1.782,16.071,0c1.06,0.59,1.64,1.24,1.64,1.68
		C70.769,28.983,67.098,31.173,61.089,31.173z M61.089,23.453c-6.011,0-9.681-2.19-9.681-3.38c0-0.47,0.58-1.1,1.649-1.68
		c5.208,1.782,10.862,1.782,16.071,0c1.06,0.58,1.64,1.21,1.64,1.68C70.769,21.263,67.098,23.453,61.089,23.453z M61.089,15.733
		c-6.011,0-9.681-2.19-9.681-3.38s3.681-3.38,9.681-3.38s9.68,2.19,9.68,3.38S67.098,15.733,61.089,15.733z"/>
</g>
</svg>
