<?xml version="1.0" encoding="utf-8"?>
<!-- Generator: Adobe Illustrator 21.0.2, SVG Export Plug-In . SVG Version: 6.00 Build 0)  -->
<svg version="1.1" id="Layer_1" xmlns="http://www.w3.org/2000/svg" xmlns:xlink="http://www.w3.org/1999/xlink" x="0px" y="0px"
	 viewBox="0 0 63.7 63.7" style="enable-background:new 0 0 63.7 63.7;" xml:space="preserve">
<style type="text/css">
	.st0{fill:none;}
</style>
<g>
	<path class="st0" d="M31.8,2.8c-16,0-29,13-29,29c0,16,13,29,29,29s29-13,29-29C60.9,15.8,47.8,2.8,31.8,2.8z M12.8,35.6
		c-2.2,0-3-2.3-3-5s0.7-5,3-5c2.3,0,3,2.3,3,5S15,35.6,12.8,35.6z M41.3,40.9c-2.6,3-6.3,4.8-10.2,4.8s-7.7-1.7-10.2-4.8
		c-0.5-0.6-0.4-1.5,0.2-2s1.5-0.4,2,0.2c2,2.4,4.9,3.8,8,3.8s6-1.4,8-3.8c0.5-0.6,1.4-0.7,2-0.2C41.8,39.4,41.8,40.3,41.3,40.9z
		 M50.8,35.6c-2.2,0-3-2.3-3-5s0.7-5,3-5c2.3,0,3,2.3,3,5S53,35.6,50.8,35.6z"/>
	<path d="M31.8,0C14.3,0,0,14.3,0,31.8c0,17.6,14.3,31.8,31.8,31.8s31.8-14.3,31.8-31.8C63.7,14.3,49.4,0,31.8,0z M31.8,60.9
		c-16,0-29-13-29-29c0-16,13-29,29-29s29,13,29,29C60.9,47.8,47.8,60.9,31.8,60.9z"/>
	<path d="M12.8,25.5c-2.3,0-3,2.3-3,5s0.9,5,3,5c2.2,0,3-2.3,3-5S15.1,25.5,12.8,25.5z"/>
	<path d="M50.8,25.5c-2.3,0-3,2.3-3,5s0.9,5,3,5c2.2,0,3-2.3,3-5S53.1,25.5,50.8,25.5z"/>
	<path d="M39.2,39.1c-2,2.4-4.9,3.8-8,3.8s-6-1.4-8-3.8c-0.5-0.6-1.4-0.7-2-0.2s-0.7,1.4-0.2,2c2.6,3,6.3,4.8,10.2,4.8
		s7.7-1.7,10.2-4.8c0.5-0.6,0.4-1.5-0.2-2C40.6,38.4,39.7,38.5,39.2,39.1z"/>
</g>
</svg>
