<?xml version="1.0" encoding="utf-8"?>
<!-- Generator: Adobe Illustrator 19.0.0, SVG Export Plug-In . SVG Version: 6.00 Build 0)  -->
<svg version="1.1" id="Layer_1" xmlns="http://www.w3.org/2000/svg" xmlns:xlink="http://www.w3.org/1999/xlink" x="0px" y="0px"
	 viewBox="-47.9 -91.9 337.1 200" style="enable-background:new -47.9 -91.9 337.1 200;" xml:space="preserve">
<style type="text/css">
	.st0{clip-path:url(#SVGID_2_);}
	.st1{clip-path:url(#SVGID_4_);}
	.st2{clip-path:url(#SVGID_6_);}
	.st3{clip-path:url(#SVGID_8_);}
	.st4{clip-path:url(#SVGID_10_);}
	.st5{clip-path:url(#SVGID_12_);}
	.st6{clip-path:url(#SVGID_14_);}
	.st7{clip-path:url(#SVGID_16_);}
	.st8{clip-path:url(#SVGID_18_);}
	.st9{clip-path:url(#SVGID_20_);}
	.st10{clip-path:url(#SVGID_22_);}
	.st11{clip-path:url(#SVGID_24_);}
	.st12{clip-path:url(#SVGID_26_);}
	.st13{clip-path:url(#SVGID_28_);}
	.st14{fill:#DBDADA;}
	.st15{clip-path:url(#SVGID_30_);}
	.st16{clip-path:url(#SVGID_32_);}
	.st17{clip-path:url(#SVGID_34_);}
	.st18{clip-path:url(#SVGID_36_);}
	.st19{clip-path:url(#SVGID_38_);}
</style>
<g>
	<g>
		<defs>
			<rect id="SVGID_1_" x="-15.8" y="-91.8" width="272.9" height="200"/>
		</defs>
		<clipPath id="SVGID_2_">
			<use xlink:href="#SVGID_1_"  style="overflow:visible;"/>
		</clipPath>
		<g class="st0">
			<path d="M189.3,54.1h-9.2c-13.3,0-24.2-10.9-24.2-24.2V7.8c0-13.3,10.9-24.2,24.2-24.2h9.2c13.3,0,24.2,10.9,24.2,24.2v22.3
				C213.5,43.4,202.7,54.1,189.3,54.1z M180.1-10.5c-10.1,0-18.4,8.2-18.4,18.4V30c0,10.1,8.2,18.4,18.4,18.4h9.2
				c10.1,0,18.4-8.2,18.4-18.2V7.8c0-10.1-8.2-18.4-18.4-18.4H180.1z"/>
		</g>
	</g>
	<g>
		<defs>
			<rect id="SVGID_3_" x="-15.8" y="-91.8" width="272.9" height="200"/>
		</defs>
		<clipPath id="SVGID_4_">
			<use xlink:href="#SVGID_3_"  style="overflow:visible;"/>
		</clipPath>
		<g class="st1">
			<path d="M189.3,39.2h-9.2c-5.5,0-10-4.5-10-10V8.7c0-5.5,4.5-10,10-10h9.2c5.5,0,10,4.5,10,10v20.5
				C199.4,34.8,195,39.2,189.3,39.2z M180.1,1.5c-3.9,0-7.1,3.3-7.1,7.1v20.5c0,3.9,3.3,7.1,7.1,7.1h9.2c4,0,7.1-3.1,7.1-7.1V8.7
				c0-3.9-3.3-7.1-7.1-7.1H180.1z"/>
		</g>
	</g>
	<g>
		<defs>
			<rect id="SVGID_5_" x="-15.8" y="-91.8" width="272.9" height="200"/>
		</defs>
		<clipPath id="SVGID_6_">
			<use xlink:href="#SVGID_5_"  style="overflow:visible;"/>
		</clipPath>
		<g class="st2">
			<path d="M192.4,28.4h-10.1v-46.1c0-33.5-27.3-60.8-60.8-60.8c-33.5,0-60.8,27.3-60.8,60.8v4.1h-4.3v0.2h-5.8v-7.4
				c0-39.1,31.8-70.9,70.9-70.9s70.9,31.8,70.9,70.9V28.4z M121.6-85.9c-24.8,0-46.4,14-57.4,34.5c11.6-19.7,33-32.9,57.4-32.9
				c24.4,0,45.8,13.2,57.4,32.9C168-71.9,146.4-85.9,121.6-85.9z"/>
		</g>
	</g>
	<g>
		<defs>
			<rect id="SVGID_7_" x="-15.8" y="-91.8" width="272.9" height="200"/>
		</defs>
		<clipPath id="SVGID_8_">
			<use xlink:href="#SVGID_7_"  style="overflow:visible;"/>
		</clipPath>
		<g class="st3">
			<path d="M67.5,54.1h-9.2C45,54.1,34.1,43.3,34.1,30V7.8c0-13.3,10.9-24.2,24.2-24.2h9.2c13.3,0,24.2,10.9,24.2,24.2v22.3
				C91.7,43.4,80.9,54.1,67.5,54.1z M58.3-10.5c-10.1,0-18.4,8.2-18.4,18.4V30c0,10.1,8.2,18.4,18.4,18.4h9.2
				c10.1,0,18.4-8.2,18.4-18.2V7.8c0-10.1-8.2-18.4-18.4-18.4H58.3z"/>
		</g>
	</g>
	<g>
		<defs>
			<rect id="SVGID_9_" x="-15.8" y="-91.8" width="272.9" height="200"/>
		</defs>
		<clipPath id="SVGID_10_">
			<use xlink:href="#SVGID_9_"  style="overflow:visible;"/>
		</clipPath>
		<g class="st4">
			<path d="M69.2,41.6H56.5c-5.5,0-10-4.5-10-10V6.2c0-5.5,4.5-10,10-10h12.7c5.5,0,10,4.5,10,10v25.6
				C79.2,37.2,74.7,41.6,69.2,41.6z M56.5-0.9c-3.9,0-7.1,3.3-7.1,7.1v25.4c0,3.9,3.3,7.1,7.1,7.1h12.7c3.9,0,7.1-3.1,7.1-6.9V6.2
				c0-3.9-3.3-7.1-7.1-7.1H56.5z"/>
		</g>
	</g>
	<g>
		<defs>
			<rect id="SVGID_11_" x="-15.8" y="-91.8" width="272.9" height="200"/>
		</defs>
		<clipPath id="SVGID_12_">
			<use xlink:href="#SVGID_11_"  style="overflow:visible;"/>
		</clipPath>
		<path class="st5" d="M57.3,8.5c-0.8,0-1.6,0.8-1.6,1.6c0,0.8,0.8,1.6,1.6,1.6c0.8,0,1.6-0.8,1.6-1.6C58.9,9.1,58.3,8.5,57.3,8.5"
			/>
	</g>
	<g>
		<defs>
			<rect id="SVGID_13_" x="-15.8" y="-91.8" width="272.9" height="200"/>
		</defs>
		<clipPath id="SVGID_14_">
			<use xlink:href="#SVGID_13_"  style="overflow:visible;"/>
		</clipPath>
		<path class="st6" d="M68.1,11.7c0.8,0,1.6-0.8,1.6-1.6c0-0.8-0.8-1.6-1.6-1.6c-0.8,0-1.6,0.8-1.6,1.6
			C66.5,10.9,67.3,11.7,68.1,11.7"/>
	</g>
	<g>
		<defs>
			<rect id="SVGID_15_" x="-15.8" y="-91.8" width="272.9" height="200"/>
		</defs>
		<clipPath id="SVGID_16_">
			<use xlink:href="#SVGID_15_"  style="overflow:visible;"/>
		</clipPath>
		<path class="st7" d="M57.3,17.3c-0.8,0-1.6,0.8-1.6,1.6c0,0.8,0.8,1.6,1.6,1.6c0.8,0,1.6-0.8,1.6-1.6S58.3,17.3,57.3,17.3"/>
	</g>
	<g>
		<defs>
			<rect id="SVGID_17_" x="-15.8" y="-91.8" width="272.9" height="200"/>
		</defs>
		<clipPath id="SVGID_18_">
			<use xlink:href="#SVGID_17_"  style="overflow:visible;"/>
		</clipPath>
		<path class="st8" d="M68.1,17.3c-0.8,0-1.6,0.8-1.6,1.6c0,0.8,0.8,1.6,1.6,1.6c0.8,0,1.6-0.8,1.6-1.6S69.2,17.3,68.1,17.3"/>
	</g>
	<g>
		<defs>
			<rect id="SVGID_19_" x="-15.8" y="-91.8" width="272.9" height="200"/>
		</defs>
		<clipPath id="SVGID_20_">
			<use xlink:href="#SVGID_19_"  style="overflow:visible;"/>
		</clipPath>
		<path class="st9" d="M57.3,26.3c-0.8,0-1.6,0.8-1.6,1.6c0,0.8,0.8,1.6,1.6,1.6c0.8,0,1.6-0.8,1.6-1.6
			C58.9,26.9,58.3,26.3,57.3,26.3"/>
	</g>
	<g>
		<defs>
			<rect id="SVGID_21_" x="-15.8" y="-91.8" width="272.9" height="200"/>
		</defs>
		<clipPath id="SVGID_22_">
			<use xlink:href="#SVGID_21_"  style="overflow:visible;"/>
		</clipPath>
		<path class="st10" d="M68.1,26.3c-0.8,0-1.6,0.8-1.6,1.6c0,0.8,0.8,1.6,1.6,1.6c0.8,0,1.6-0.8,1.6-1.6
			C69.8,26.9,69.2,26.3,68.1,26.3"/>
	</g>
	<g>
		<defs>
			<rect id="SVGID_23_" x="-15.8" y="-91.8" width="272.9" height="200"/>
		</defs>
		<clipPath id="SVGID_24_">
			<use xlink:href="#SVGID_23_"  style="overflow:visible;"/>
		</clipPath>
		<g class="st11">
			<path d="M137.7,99.2h-34v-5.8h34c23.2,0,42.1-18.9,42.1-42.1V37.7h5.8v13.5C185.7,77.7,164.2,99.2,137.7,99.2z"/>
		</g>
	</g>
	<g>
		<defs>
			<rect id="SVGID_25_" x="-15.8" y="-91.8" width="272.9" height="200"/>
		</defs>
		<clipPath id="SVGID_26_">
			<use xlink:href="#SVGID_25_"  style="overflow:visible;"/>
		</clipPath>
		<g class="st12">
			<path d="M94.8,108.2H86c-6.6,0-11.7-5.1-11.7-11.7c0-6.6,5.1-11.7,11.7-11.7h8.8c6.6,0,11.7,5.1,11.7,11.7
				C106.5,103,101.3,108.2,94.8,108.2z M86,90.6c-3.3,0-5.9,2.6-5.9,5.9c0,3.3,2.6,5.9,5.9,5.9h8.8c3.3,0,5.9-2.6,5.9-5.9
				c0-3.3-2.6-5.9-5.9-5.9H86z"/>
		</g>
	</g>
	<g>
		<defs>
			<rect id="SVGID_27_" x="-15.8" y="-91.8" width="272.9" height="200"/>
		</defs>
		<clipPath id="SVGID_28_">
			<use xlink:href="#SVGID_27_"  style="overflow:visible;"/>
		</clipPath>
		<g class="st13">
			
				<rect x="216" y="-51" transform="matrix(0.8202 0.5721 -0.5721 0.8202 16.7708 -131.431)" class="st14" width="2.9" height="24"/>
		</g>
	</g>
	<g>
		<defs>
			<rect id="SVGID_29_" x="-15.8" y="-91.8" width="272.9" height="200"/>
		</defs>
		<clipPath id="SVGID_30_">
			<use xlink:href="#SVGID_29_"  style="overflow:visible;"/>
		</clipPath>
		<g class="st15">
			
				<rect x="205.4" y="72.2" transform="matrix(0.5683 0.8228 -0.8228 0.5683 154.4827 -147.1442)" class="st14" width="24.1" height="2.9"/>
		</g>
	</g>
	<g>
		<defs>
			<rect id="SVGID_31_" x="-15.8" y="-91.8" width="272.9" height="200"/>
		</defs>
		<clipPath id="SVGID_32_">
			<use xlink:href="#SVGID_31_"  style="overflow:visible;"/>
		</clipPath>
		<g class="st16">
			<rect x="228.4" y="15.8" class="st14" width="28.7" height="2.9"/>
		</g>
	</g>
	<g>
		<defs>
			<rect id="SVGID_33_" x="-15.8" y="-91.8" width="272.9" height="200"/>
		</defs>
		<clipPath id="SVGID_34_">
			<use xlink:href="#SVGID_33_"  style="overflow:visible;"/>
		</clipPath>
		<g class="st17">
			
				<rect x="18.8" y="-37.8" transform="matrix(0.5812 0.8137 -0.8137 0.5812 -18.0364 -37.6995)" class="st14" width="17.6" height="2.9"/>
		</g>
	</g>
	<g>
		<defs>
			<rect id="SVGID_35_" x="-15.8" y="-91.8" width="272.9" height="200"/>
		</defs>
		<clipPath id="SVGID_36_">
			<use xlink:href="#SVGID_35_"  style="overflow:visible;"/>
		</clipPath>
		<g class="st18">
			
				<rect x="24.3" y="61.5" transform="matrix(0.8191 0.5736 -0.5736 0.8191 46.9144 -1.4573)" class="st14" width="2.9" height="24.3"/>
		</g>
	</g>
	<g>
		<defs>
			<rect id="SVGID_37_" x="-15.8" y="-91.8" width="272.9" height="200"/>
		</defs>
		<clipPath id="SVGID_38_">
			<use xlink:href="#SVGID_37_"  style="overflow:visible;"/>
		</clipPath>
		<g class="st19">
			<rect x="-15.8" y="15.8" class="st14" width="30.5" height="2.9"/>
		</g>
	</g>
</g>
</svg>
