<?xml version="1.0" encoding="utf-8"?>
<!-- Generator: Adobe Illustrator 19.0.0, SVG Export Plug-In . SVG Version: 6.00 Build 0)  -->
<svg version="1.1" id="svg2" xmlns="http://www.w3.org/2000/svg" xmlns:xlink="http://www.w3.org/1999/xlink" x="0px" y="0px"
	 viewBox="-315.5 258.6 73 45" style="enable-background:new -315.5 258.6 73 45;" xml:space="preserve">
<g>
	<polygon points="-289.3,292.1 -283.7,292.1 -280.1,270.2 -285.8,270.2 	"/>
	<path d="M-268.7,279c-2-1-3.2-1.7-3.2-2.7c0-0.9,1-1.9,3.2-1.9c1.9,0,3.2,0.4,4.2,0.8l0.5,0.3l0.8-4.8c-1.1-0.4-2.9-0.9-5.1-0.9
		c-5.6,0-9.5,3-9.6,7.2c0,3.2,2.8,4.9,5,6c2.2,1.1,2.9,1.8,2.9,2.7c0,1.5-1.8,2.1-3.4,2.1c-2.3,0-3.5-0.3-5.3-1.2l-0.7-0.3l-0.8,4.9
		c1.3,0.6,3.8,1.1,6.3,1.2c6,0,9.8-2.9,9.9-7.5C-263.9,282.4-265.4,280.5-268.7,279z"/>
	<path d="M-248.6,270.2h-4.4c-1.4,0-2.4,0.4-3,1.8l-8.4,20.1h6c0,0,1-2.7,1.2-3.3c0.6,0,6.4,0,7.3,0c0.2,0.8,0.7,3.3,0.7,3.3h5.3
		L-248.6,270.2z M-255.6,284.3c0.5-1.3,2.3-6.1,2.3-6.1c0,0.1,0.5-1.3,0.8-2.1l0.4,1.9c0,0,1.1,5.2,1.3,6.3
		C-251.8,284.3-254.5,284.3-255.6,284.3z"/>
	<path d="M-294.1,270.2l-5.5,15l-0.6-3l-2-10.1c-0.3-1.4-1.3-1.8-2.6-1.9h-9.1l-0.1,0.5c2.2,0.6,4.2,1.4,6,2.4l5,19.1l6,0l8.9-21.9
		H-294.1z"/>
</g>
</svg>
