<?xml version="1.0" encoding="utf-8"?>
<!-- Generator: Adobe Illustrator 19.0.0, SVG Export Plug-In . SVG Version: 6.00 Build 0)  -->
<svg version="1.1" id="svg2" xmlns="http://www.w3.org/2000/svg" xmlns:xlink="http://www.w3.org/1999/xlink" x="0px" y="0px"
	 viewBox="-315.5 258.6 73 45" style="enable-background:new -315.5 258.6 73 45;" xml:space="preserve">
<style type="text/css">
	.st0{fill:#2B3894;}
	.st1{fill:#F79510;}
</style>
<g id="g10" transform="matrix(1.25,0,0,-1.25,-74.19125,149.0417)">
	<g id="g4163" transform="matrix(0.6384875,0,0,0.6384875,24.348951,24.07854)">
		<g id="g12" transform="translate(143.448,67.609)">
			<path id="path14" class="st0" d="M-451.2-284.6l4.4,27.5h7.1l-4.4-27.5H-451.2"/>
		</g>
		<g id="g16" transform="translate(224.353,133.66)">
			<path id="path18" class="st0" d="M-499.2-323.8c-1.4,0.6-3.6,1.2-6.4,1.2c-7,0-12-3.7-12-9.1c0-4,3.5-6.2,6.2-7.5
				c2.8-1.3,3.7-2.2,3.7-3.4c0-1.8-2.2-2.7-4.2-2.7c-2.8,0-4.4,0.4-6.7,1.4l-0.9,0.4l-1-6.2c1.7-0.8,4.7-1.4,7.9-1.5
				c7.5,0,12.3,3.7,12.4,9.4c0,3.1-1.9,5.5-6,7.5c-2.5,1.3-4,2.1-4,3.4c0,1.1,1.3,2.4,4.1,2.4c2.3,0,4-0.5,5.3-1.1l0.6-0.3
				L-499.2-323.8"/>
		</g>
		<g id="g20" transform="translate(247.634,91.616)">
			<path id="path22" class="st0" d="M-513-298.8c0.6,1.6,2.8,7.7,2.8,7.7c0-0.1,0.6,1.6,0.9,2.6l0.5-2.4c0,0,1.4-6.6,1.6-7.9
				C-508.2-298.8-511.7-298.8-513-298.8z M-504.3-281.1h-5.5c-1.7,0-3-0.5-3.7-2.3l-10.5-25.2h7.5c0,0,1.2,3.4,1.5,4.1
				c0.8,0,8.1,0,9.1,0c0.2-1,0.9-4.1,0.9-4.1h6.6L-504.3-281.1"/>
		</g>
		<g id="g24" transform="translate(128.78,135.265)">
			<path id="path26" class="st0" d="M-442.4-324.8l-6.9-18.7l-0.7,3.8c-1.3,4.4-5.3,9.1-9.8,11.5l6.4-24l7.5,0l11.2,27.4H-442.4"/>
		</g>
		<g id="g28" transform="translate(95.781,135.311)">
			<path id="path30" class="st1" d="M-422.8-324.8h-11.4l-0.1-0.6c8.9-2.3,14.8-7.8,17.2-14.4l-2.5,12.6
				C-420.1-325.4-421.3-324.8-422.8-324.8"/>
		</g>
	</g>
</g>
</svg>
