<svg xmlns="http://www.w3.org/2000/svg" viewBox="0 0 500 500"><path d="M121.4 94.4c-12.5 28-7.6 78.2-5.6 113.3-13.5 7.5-30.8-5.6-40.6-5.6-10.2 0-22.4 6.7-24.3 16.7-1.4 7.2 1.9 17.7 25 26.9 9 3.5 30.3 7.7 35.2 19.3 6.9 16.3-35.6 91.7-102.5 102.7-5.2.9-9 5.5-8.7 10.8 1.2 20.3 46.7 28.3 66.9 31.4 2.1 2.8 3.7 14.6 6.4 23.6 1.2 4 4.3 8.8 12.1 8.8 10.3 0 27.3-7.9 57-3 29.1 4.9 56.5 46.1 109.1 46.1 48.9 0 78-41.5 106-46.1 16.2-2.7 30.2-1.8 45.8 1.2 10.7 2.1 20.4 3.3 23.4-7.3 2.7-9.1 4.3-20.7 6.4-23.4 20-3.1 65.8-11 66.9-31.4.3-5.3-3.4-9.9-8.7-10.8-65.7-10.8-109.6-86-102.5-102.7 4.9-11.6 26.1-15.7 35.2-19.3 17-6.7 25.5-14.9 25.3-24.4-.2-12.2-14.9-19.5-25.7-19.5-11 0-26.8 13-39.5 6 2-35.4 6.9-85.3-5.6-113.3-23.6-53-76.3-79.8-128.8-79.8-52.1 0-104.3 26.4-128.2 79.8z"/></svg>