<svg xmlns="http://www.w3.org/2000/svg" viewBox="0 0 500 500"><path d="M500 92.8c-18.7 8.4-38.6 14-58.9 16.4 21.5-13.1 37.5-33.6 45.1-57.6C466.1 63.8 444 72.3 421 77c-19.3-20.9-46.4-32.8-74.9-32.9-56.7 0-102.6 46.5-102.6 104 0 8.1.9 16.1 2.7 23.7C161 167.5 85.4 126.1 34.8 63.2c-9.1 15.9-13.9 33.9-13.9 52.2 0 36.1 18.1 67.9 45.6 86.5-16.3-.5-32.2-5-46.4-13v1.3c0 50.4 35.3 92.3 82.3 101.9-8.6 2.4-17.6 3.6-27 3.6-6.6 0-13-.6-19.3-1.8 13.1 41.3 50.9 71.3 95.8 72.2-42.8 34.2-97.5 49.7-151.9 43.1 46.8 30.5 101.4 46.7 157.3 46.7 188.7 0 291.9-158.4 291.9-295.8 0-4.5-.1-9-.3-13.4 20-14.7 37.4-33 51.1-53.9z"/></svg>