<svg xmlns="http://www.w3.org/2000/svg" id="Layer_1" viewBox="0 0 500 500"><style>.st0{fill:#141516}</style><path d="M250.2 43.7c21.4 0 41.2 9.8 54.3 26.9 13.3 17.3 17.4 38.9 11.6 60.9-5.9 22.4-24.3 40.7-46.7 46.7-6.4 1.7-12.9 2.6-19.3 2.6-21.4 0-41.2-9.8-54.4-26.9-13.3-17.3-17.4-38.9-11.6-60.9 6-22.4 24.3-40.7 46.7-46.7 6.6-1.7 13.1-2.6 19.4-2.6m0-43.7c-9.9 0-20.1 1.3-30.5 4-37.5 9.9-67.8 40.2-77.7 77.7-19.9 74.9 36.4 142.7 108.2 142.7 9.9 0 20.1-1.3 30.5-4 37.5-9.9 67.8-40.2 77.7-77.7C378.3 67.8 322 0 250.2 0zm180.7 271l-3-18.8-77.2 1.3v43.7l40-.5c2.1 14.9 4.1 31.2 4.1 38.5v121H105.7V339.1c0-.5-.3-1-.3-1.5v-1.4c0-7.4 2-23.7 4.1-38.5l39.8.4v-43.7l-77.1-1.2-3 18.8c-.8 4.7-7.4 46.5-7.4 64.3l.3 163.8h376.3V335.3c-.1-17.8-6.7-59.6-7.5-64.3z" class="st0"/></svg>