<svg xmlns="http://www.w3.org/2000/svg" viewBox="0 0 500 500"><path d="M430.1 31.5H320.4V9.4c0-5.2-4.2-9.4-9.3-9.4H189c-5.2 0-9.4 4.2-9.4 9.4v22.2H69.9c-5.2 0-9.3 4.2-9.3 9.3v47.3c0 5.2 4.2 9.3 9.3 9.3h29.5v393.2c0 5.2 4.2 9.3 9.3 9.3h282.5c5.1 0 9.3-4.2 9.3-9.3V97.5H430c5.2 0 9.3-4.2 9.3-9.3V40.8c.1-5.1-4-9.3-9.2-9.3zM118 481.4v-384h263.9v383.9l-263.9.1zM301.7 18.6v12.9H198.3V18.6h103.4zm119.1 31.5v28.7H79.2V50.1h341.6z"/><path d="M178.8 167c-5.2 0-9.3 4.2-9.3 9.3v237.5c0 5.2 4.2 9.3 9.3 9.3 5.1 0 9.3-4.2 9.3-9.3V176.3c0-5.1-4.2-9.3-9.3-9.3zm71.2 0c-5.2 0-9.3 4.2-9.3 9.3v237.5c0 5.2 4.2 9.3 9.3 9.3 5.1 0 9.3-4.2 9.3-9.3V176.3c0-5.1-4.2-9.3-9.3-9.3zm71.2 0c-5.2 0-9.3 4.2-9.3 9.3v237.5c0 5.2 4.2 9.3 9.3 9.3s9.3-4.2 9.3-9.3V176.3c0-5.1-4.1-9.3-9.3-9.3z"/></svg>