<svg xmlns="http://www.w3.org/2000/svg" width="20" height="14" viewBox="490 243 20 14"><path fill="#006" d="M490 243h20v14h-20z"/><path fill="#FFF" d="M490 243v1.567L507.767 257H510v-1.567L492.233 243H490zm20 0v1.567L492.233 257H490v-1.567L507.767 243H510z"/><path fill="#FFF" d="M498.333 243v14h3.334v-14h-3.334zM490 247.667v4.666h20v-4.666h-20z"/><path fill="#C00" d="M490 248.6v2.8h20v-2.8h-20zm9-5.6v14h2v-14h-2zm-9 14l6.667-4.667h1.483L491.483 257H490zm0-14l6.667 4.667h-1.484L490 244.05V243zm11.85 4.667l6.667-4.667H510l-6.667 4.667h-1.483zM510 257l-6.667-4.667h1.484L510 255.95V257z"/></svg>