<svg xmlns="http://www.w3.org/2000/svg" viewBox="0 0 500 500"><path d="M500 467.9l-127-127c66.2-82.2 61.1-203.2-15.2-279.5C318.3 21.8 265.6 0 209.6 0 153.6 0 101 21.8 61.4 61.4 21.8 101 0 153.6 0 209.6s21.8 108.6 61.4 148.2c39.6 39.6 92.2 61.4 148.2 61.4 48.4 0 94.2-16.3 131.3-46.2l127 127 32.1-32.1zm-290.4-94.1c-43.9 0-85.1-17.1-116.1-48.1s-48.1-72.3-48.1-116.1 17.1-85.1 48.1-116.1 72.3-48.1 116.1-48.1c43.9 0 85.1 17.1 116.1 48.1 64 64 64 168.2 0 232.2-31 31.1-72.2 48.1-116.1 48.1z"/><path d="M313.8 184.5h-80.6v-80.6h-43v80.6h-80.7v43h80.7v80.7h43v-80.7h80.6z"/></svg>