<svg xmlns="http://www.w3.org/2000/svg" viewBox="0 0 500 500"><path d="M374.5 0h-249C56.8 0 1 55.8 1 124.4v251.1C1 444.2 56.8 500 125.5 500h249.1c68.6 0 124.4-55.8 124.4-124.4V124.4C499 55.8 443.2 0 374.5 0zm-249 46.1h249.1c43.2 0 78.4 35.1 78.4 78.4v42.8H321c-19.3-13.8-42.9-21.9-68.4-21.9s-49.1 8.1-68.4 21.9h-137v-42.8c-.1-43.3 35.1-78.4 78.3-78.4zm176.1 217.5c0 27.1-22 49.1-49.1 49.1s-49.1-22-49.1-49.1 22-49.1 49.1-49.1 49.1 22 49.1 49.1zm72.9 190.3h-249c-43.2 0-78.4-35.1-78.4-78.4V213.4h98.5c-7.2 15.3-11.2 32.3-11.2 50.2 0 65.2 53 118.2 118.2 118.2s118.2-53 118.2-118.2c0-17.9-4-35-11.2-50.2H453v162.2c-.1 43.2-35.3 78.3-78.5 78.3z"/><path d="M416.8 130.6c0 7.6-6.2 13.8-13.8 13.8h-42.7c-7.6 0-13.8-6.2-13.8-13.8V87.9c0-7.6 6.2-13.8 13.8-13.8H403c7.6 0 13.8 6.2 13.8 13.8v42.7z"/></svg>