<svg xmlns="http://www.w3.org/2000/svg" viewBox="0 0 500 500"><path d="M408.7 499.8H91.3C40.9 499.8 0 458 0 406.4v-75c0-51.5 40.9-93.3 91.3-93.3h317.3c50.5 0 91.3 41.8 91.3 93.3v75c.1 51.6-40.8 93.4-91.2 93.4zM158 271.1H70.5v25.5H100v149.7h28.5V296.6H158v-25.5zm83.3 45.9H216v98.2c-2.3 2.7-4.9 5-7.9 7-2.8 1.8-5.2 2.7-7 2.7-2.4 0-4.1-.6-5.2-2.1-1-1.3-1.6-3.5-1.6-6.6V317H169v108.1c0 7.7 1.5 13.5 4.4 17.3 3 3.9 7.4 5.8 13.2 5.8 4.7 0 9.6-1.3 14.7-4.1 5.1-2.7 9.9-6.7 14.6-11.9v14.2h25.3c.1-.1.1-129.4.1-129.4zm91.8 30.9c0-10.6-2.1-18.7-6.3-24.2-4.2-5.5-10.3-8.2-18.3-8.2-3.9 0-7.8 1-11.7 3.1-3.8 2-7.4 5-10.8 9v-56.4h-25.6v175.2H286v-9.9c3.3 4 7 6.9 10.8 8.8 3.9 1.9 8.3 2.8 13.2 2.8 7.5 0 13.2-2.4 17.2-7.3s6-11.9 6-21.1c-.1-.1-.1-71.8-.1-71.8zm87.8 55.3h-26v5.9c0 7.6-.9 12.5-2.5 14.7-1.7 2.2-4.6 3.3-8.8 3.3-4 0-6.9-1.3-8.6-3.9-1.7-2.6-2.5-7.3-2.5-14.2v-24.4h48.4v-33c0-12.2-3.1-21.6-9.3-28.2-6.2-6.5-15.1-9.8-26.7-9.8-11.3 0-20.5 3.5-27.7 10.5-7.2 7-10.7 16.3-10.7 27.4v58.1c0 12.4 3.3 22.2 9.8 29.3 6.5 7.1 15.4 10.7 26.8 10.7 12.6 0 22.1-3.3 28.4-10 6.4-6.7 9.5-16.7 9.5-30-.1.2-.1-6.4-.1-6.4zm-48.4-51.6c0-5.4.8-9.3 2.6-11.6 1.8-2.4 4.6-3.6 8.7-3.6 3.9 0 6.7 1.2 8.4 3.6 1.7 2.2 2.7 6.2 2.7 11.6v13.1h-22.4v-13.1zM298 427.7c-2.1 0-4.2-.5-6.1-1.4-2.2-1.2-4.3-2.7-6-4.6v-80.5c1.5-1.6 3.3-3 5.2-4 1.7-.8 3.5-1.3 5.4-1.2 3.4 0 6 1.1 7.9 3.4 1.8 2.2 2.7 5.5 2.7 9.9V416c0 4.1-.7 7.1-2.2 8.9s-3.7 2.8-6.9 2.8zm65.1-250.2c-4.6 5.4-10.2 9.9-16.4 13.3-5.7 3-11.2 4.5-16.5 4.5-6.6 0-11.5-2.2-14.9-6.4-3.3-4.2-5-10.5-5-19v-119h28.4v109.2c0 3.4.7 5.8 1.8 7.3 1.2 1.5 3.1 2.3 5.8 2.3 2.1 0 4.7-1 8-3 3.2-2 6.1-4.5 8.7-7.7V50.9h28.5v142.4H363c.1 0 .1-15.8.1-15.8zm-117.4 19.4c-12.4 0-22.4-3.6-29.9-10.7-7.5-7.2-11.2-16.8-11.2-28.9V83.4c0-11 3.8-19.8 11.5-26.3s18-9.8 30.9-9.8c11.8 0 21.4 3.4 29 10.3 7.5 6.9 11.3 15.8 11.3 26.6v73.6c0 12.2-3.7 21.7-11 28.7-7.5 6.9-17.7 10.4-30.6 10.4zm12.5-114.5c.1-2.9-1.2-5.7-3.5-7.5-2.6-2-5.9-3-9.2-2.9-3.1-.1-6.1.9-8.5 2.9-2.2 1.9-3.3 4.7-3.2 7.5V160c0 3.9 1 6.9 3 9 2 2.2 4.9 3.2 8.7 3.2 3.9 0 6.9-1.1 9.2-3.3 2.3-2.2 3.4-5.2 3.4-9 .1 0 .1-77.5.1-77.5zm-93.3 110.9h-32.1v-76.5L94.7.2H127l20.8 77.2h2L169.6.2h32.6l-37.3 113v80.1z"/></svg>